<?xml version="1.0" encoding="utf-8"?>
<!-- Generator: Adobe Illustrator 26.1.0, SVG Export Plug-In . SVG Version: 6.00 Build 0)  -->
<svg version="1.1" id="Layer_1" xmlns="http://www.w3.org/2000/svg" xmlns:xlink="http://www.w3.org/1999/xlink" x="0px" y="0px"
	 viewBox="0 0 53.88 52.52" style="enable-background:new 0 0 53.88 52.52;" xml:space="preserve">
<style type="text/css">
	.st0{fill:none;stroke:#38BDF8;stroke-width:4;stroke-miterlimit:10;}
	.st1{fill:none;stroke:#38BDF8;stroke-width:4;stroke-linecap:round;stroke-miterlimit:10;}
</style>
<g>
	<g>
		<path class="st0" d="M19.88,37.57c1.1,6.93,3.92,11.87,7.24,11.87s6.13-4.94,7.24-11.87H19.88z"/>
		<path class="st0" d="M18.98,37.05h16.28c2.9-2.32,4.76-5.85,4.76-9.81c0-6.98-5.78-12.65-12.9-12.65c-7.13,0-12.9,5.66-12.9,12.65
			C14.22,31.2,16.08,34.73,18.98,37.05z"/>
	</g>
	<line class="st1" x1="27.12" y1="7.55" x2="27.12" y2="4.55"/>
	<line class="st1" x1="13.63" y1="13.21" x2="11.51" y2="11.09"/>
	<line class="st1" x1="43.54" y1="11.04" x2="41.42" y2="13.16"/>
	<line class="st1" x1="7.3" y1="27.19" x2="4.3" y2="27.19"/>
	<line class="st1" x1="50.27" y1="27.29" x2="47.27" y2="27.29"/>
</g>
</svg>
