<?xml version="1.0" encoding="UTF-8"?>
<svg width="3840px" height="2160px" viewBox="0 0 3840 2160" version="1.1" xmlns="http://www.w3.org/2000/svg" xmlns:xlink="http://www.w3.org/1999/xlink">
    <title>undabot background</title>
    <defs>
        <rect id="path-1" x="0" y="0" width="3840" height="2160"></rect>
        <polygon id="path-3" points="0 0 30.6106069 0 30.6106069 49.4514955 0 49.4514955"></polygon>
        <polygon id="path-5" points="0 0 30.6106069 0 30.6106069 49.4514955 0 49.4514955"></polygon>
        <polygon id="path-7" points="0 0 30.6106069 0 30.6106069 48.8994055 0 48.8994055"></polygon>
        <polygon id="path-9" points="0 0 133.842989 0 133.842989 272.65487 0 272.65487"></polygon>
        <polygon id="path-11" points="0 0 30.6126441 0 30.6126441 49.510674 0 49.510674"></polygon>
        <polygon id="path-13" points="0 0 30.6126441 0 30.6126441 49.510674 0 49.510674"></polygon>
        <polygon id="path-15" points="0 0 30.6126441 0 30.6126441 48.9579232 0 48.9579232"></polygon>
    </defs>
    <g id="undabot-background" stroke="none" stroke-width="1" fill="none" fill-rule="evenodd">
        <g id="bg">
            <mask id="mask-2" fill="white">
                <use xlink:href="#path-1"></use>
            </mask>
            <use id="Rectangle" fill="#F2FCFF" xlink:href="#path-1"></use>
            <g id="pattern" opacity="0.399118823" mask="url(#mask-2)">
                <g transform="translate(1860.000000, -45.492406)">
                    <path d="M491.372842,1248.59536 C491.372842,1243.37476 487.129055,1239.14017 481.891786,1239.14017 C476.656906,1239.14017 472.413119,1243.37476 472.413119,1248.59536 C472.413119,1253.81596 476.656906,1258.05055 481.891786,1258.05055 C487.129055,1258.05055 491.372842,1253.81596 491.372842,1248.59536" id="Fill-1" fill-opacity="0.3" fill="#FFFFFF"></path>
                    <path d="M18.9597238,376.425878 C18.9597238,371.205279 14.7140829,366.970687 9.47747404,366.970687 C4.24325305,366.970687 -2.27373675e-13,371.205279 -2.27373675e-13,376.425878 C-2.27373675e-13,381.648858 4.24325305,385.881068 9.47747404,385.881068 C14.7140829,385.881068 18.9597238,381.648858 18.9597238,376.425878" id="Fill-3" fill="#FFFFFF" opacity="0.300000012"></path>
                    <path d="M1373,901.62135 C1373,896.401409 1368.75675,892.164969 1363.52014,892.164969 C1358.28353,892.164969 1354.04028,896.401409 1354.04028,901.62135 C1354.04028,906.841292 1358.28353,911.07535 1363.52014,911.07535 C1368.75675,911.07535 1373,906.841292 1373,901.62135" id="Fill-7" fill-opacity="0.3" fill="#FFFFFF"></path>
                    <path d="M109.018412,1766.03602 C109.018412,1760.81608 104.775159,1756.58202 99.5361622,1756.58202 C94.3019412,1756.58202 90.0586881,1760.81608 90.0586881,1766.03602 C90.0586881,1771.25597 94.3019412,1775.49241 99.5361622,1775.49241 C104.775159,1775.49241 109.018412,1771.25597 109.018412,1766.03602" id="Fill-9" fill="#0099CD" opacity="0.300000012"></path>
                    <path d="M1354.04028,152.460093 C1354.04028,141.146163 1344.84608,131.973846 1333.5019,131.973846 C1322.15772,131.973846 1312.96087,141.146163 1312.96087,152.460093 C1312.96087,163.774022 1322.15772,172.946339 1333.5019,172.946339 C1344.84608,172.946339 1354.04028,163.774022 1354.04028,152.460093" id="Fill-11" fill="#FFFFFF" opacity="0.300000012"></path>
                    <g id="Group-16" opacity="0.300000012" stroke-width="1" fill="none" transform="translate(1154.963176, 348.357972)">
                        <g id="Group-3" transform="translate(72.141769, 0.000000)">
                            <mask id="mask-4" fill="white">
                                <use xlink:href="#path-3"></use>
                            </mask>
                            <g id="Clip-2"></g>
                            <polygon id="Fill-1" fill="#FFFFFF" mask="url(#mask-4)" points="0 24.7257478 30.6126182 0 30.6126182 49.4514955"></polygon>
                        </g>
                        <g id="Group-6" transform="translate(72.141769, 59.507195)">
                            <mask id="mask-6" fill="white">
                                <use xlink:href="#path-5"></use>
                            </mask>
                            <g id="Clip-5"></g>
                            <polygon id="Fill-4" fill="#FFFFFF" mask="url(#mask-6)" points="0 24.7257478 30.6126182 0 30.6126182 49.4514955"></polygon>
                        </g>
                        <g id="Group-9" transform="translate(72.141769, 121.146815)">
                            <mask id="mask-8" fill="white">
                                <use xlink:href="#path-7"></use>
                            </mask>
                            <g id="Clip-8"></g>
                            <polygon id="Fill-7" fill="#FFFFFF" mask="url(#mask-8)" points="0 24.4497027 30.6126182 0 30.6126182 48.8994055"></polygon>
                        </g>
                        <polygon id="Fill-10" fill="#FFFFFF" points="35.7970905 55.4928047 66.9249953 31.0018541 66.9249953 79.9837554"></polygon>
                        <polygon id="Fill-12" fill="#FFFFFF" points="35.7970905 115.535135 66.9249953 91.0441847 66.9249953 140.026086"></polygon>
                        <polygon id="Fill-14" fill="#FFFFFF" points="0 85.51397 31.1279048 61.0230194 31.1279048 110.004921"></polygon>
                    </g>
                    <path d="M169.057537,191.747951 C169.057537,180.434022 159.861287,171.261705 148.517837,171.261705 C137.174386,171.261705 127.978136,180.434022 127.978136,191.747951 C127.978136,203.061881 137.174386,212.234198 148.517837,212.234198 C159.861287,212.234198 169.057537,203.061881 169.057537,191.747951" id="Fill-13" fill="#FFFFFF" opacity="0.300000012"></path>
                    <path d="M628.391266,218.306281 C628.391266,194.807962 609.290642,175.757337 585.730652,175.757337 C562.170661,175.757337 543.072509,194.807962 543.072509,218.306281 C543.072509,241.8046 562.170661,260.852759 585.730652,260.852759 C609.290642,260.852759 628.391266,241.8046 628.391266,218.306281" id="Fill-22" fill="#FFFFFF" opacity="0.300000012"></path>
                    <path d="M123.238205,621.959131 C123.238205,616.736151 118.994417,612.503941 113.757149,612.503941 C108.522269,612.503941 104.278481,616.736151 104.278481,621.959131 C104.278481,627.17973 108.522269,631.414322 113.757149,631.414322 C118.994417,631.414322 123.238205,627.17973 123.238205,621.959131" id="Fill-24" fill="#FFFFFF"></path>
                    <path d="M918.757825,555.547672 C915.585506,555.547672 913.000296,558.123977 913.000296,561.288324 C913.000296,564.455081 915.585506,567.028975 918.757825,567.028975 C921.930143,567.028975 924.512938,564.455081 924.512938,561.288324 C924.512938,558.123977 921.930143,555.547672 918.757825,555.547672 M918.757825,574.683178 C911.352527,574.683178 905.326812,568.675014 905.326812,561.288324 C905.326812,553.901633 911.352527,547.89347 918.757825,547.89347 C926.160707,547.89347 932.186421,553.901633 932.186421,561.288324 C932.186421,568.675014 926.160707,574.683178 918.757825,574.683178" id="Fill-36" fill="#0086B4"></path>
                    <path d="M1089.39292,1436.05357 C1086.2206,1436.05357 1083.63781,1438.62747 1083.63781,1441.79422 C1083.63781,1444.95857 1086.2206,1447.53729 1089.39292,1447.53729 C1092.56524,1447.53729 1095.15045,1444.95857 1095.15045,1441.79422 C1095.15045,1438.62747 1092.56524,1436.05357 1089.39292,1436.05357 M1089.39292,1455.18908 C1081.99004,1455.18908 1075.96433,1449.18091 1075.96433,1441.79422 C1075.96433,1434.40753 1081.99004,1428.39937 1089.39292,1428.39937 C1096.79822,1428.39937 1102.82394,1434.40753 1102.82394,1441.79422 C1102.82394,1449.18091 1096.79822,1455.18908 1089.39292,1455.18908" id="Fill-38" fill="#0086B4"></path>
                    <path d="M293.319053,1683.94839 C291.135255,1683.54585 289.704492,1681.48284 290.081008,1679.31667 C290.455015,1677.13038 292.515817,1675.69633 294.699615,1676.07371 C296.855801,1676.45109 298.311666,1678.51411 297.937659,1680.70292 C297.583733,1682.63762 295.901958,1683.99871 294.019374,1683.99871 C293.770873,1683.99871 293.544963,1683.97355 293.319053,1683.94839 M264.251955,1686.61522 C263.144996,1684.70316 263.797625,1682.26276 265.70782,1681.15578 L265.732922,1681.15578 C267.640607,1680.04628 270.072905,1680.70292 271.154764,1682.63762 C272.256703,1684.52453 271.606584,1686.96493 269.698899,1688.07443 C269.071371,1688.45181 268.39113,1688.6254 267.71591,1688.6254 C266.335348,1688.6254 265.004989,1687.8958 264.251955,1686.61522 M314.052578,1695.97175 C312.644406,1694.28611 312.845215,1691.77024 314.554601,1690.33871 C316.236376,1688.92731 318.746488,1689.15373 320.149641,1690.83937 L320.174742,1690.83937 C321.582915,1692.525 321.357004,1695.04088 319.672719,1696.47492 C318.919686,1697.08125 318.018555,1697.40831 317.112405,1697.40831 C315.982855,1697.40831 314.853304,1696.90262 314.052578,1695.97175 M249.138571,1708.83037 C247.080279,1708.07561 246.026032,1705.78617 246.781576,1703.72064 C247.534609,1701.63246 249.818811,1700.5758 251.874593,1701.33056 C253.957986,1702.08784 255.012233,1704.37728 254.259199,1706.46294 C253.656773,1708.07561 252.153215,1709.07945 250.519132,1709.07945 C250.069822,1709.07945 249.590391,1709.00649 249.138571,1708.83037 M326.224112,1722.69032 C324.015213,1722.69032 322.235544,1720.8814 322.235544,1718.6926 C322.235544,1718.66744 322.235544,1718.64228 322.258135,1718.6146 C322.235544,1718.59196 322.235544,1718.5668 322.235544,1718.54164 C322.235544,1716.32768 324.015213,1714.53889 326.224112,1714.53889 C328.43301,1714.53889 330.21519,1716.32768 330.21519,1718.54164 L330.21519,1718.79323 C330.167498,1720.95688 328.407909,1722.69032 326.224112,1722.69032 M246.706272,1733.20918 C245.97834,1731.14617 247.032587,1728.85672 249.11598,1728.10196 C251.174272,1727.3472 253.455964,1728.40386 254.211507,1730.49204 C254.964541,1732.58021 253.882683,1734.86714 251.826901,1735.59674 C251.372571,1735.77537 250.92075,1735.85085 250.47144,1735.85085 C248.837357,1735.85085 247.308699,1734.84198 246.706272,1733.20918 M314.426585,1746.84521 C312.74481,1745.43381 312.544001,1742.89529 313.974765,1741.23481 L313.952174,1741.23481 C315.380428,1739.54918 317.89054,1739.32275 319.574825,1740.7568 C321.2566,1742.16569 321.48251,1744.7042 320.049236,1746.38984 C319.273611,1747.32071 318.144061,1747.80124 317.012001,1747.80124 C316.10836,1747.80124 315.182129,1747.47418 314.426585,1746.84521 M265.579805,1755.85203 L265.579805,1755.82436 C263.67212,1754.71989 263.022001,1752.27698 264.12394,1750.36492 C265.230899,1748.47801 267.688299,1747.8264 269.570883,1748.93338 C271.481078,1750.04037 272.133707,1752.47825 271.026748,1754.39283 C270.273714,1755.67592 268.943355,1756.38037 267.562793,1756.38037 C266.887573,1756.38037 266.207333,1756.20426 265.579805,1755.85203 M289.927892,1757.78926 C289.553885,1755.59793 291.00724,1753.53492 293.165936,1753.16005 L293.191037,1753.18521 C295.352244,1752.80783 297.410536,1754.26452 297.784542,1756.43069 C298.138468,1758.59434 296.682603,1760.65484 294.521397,1761.03473 C294.297997,1761.08253 294.072087,1761.11021 293.846176,1761.11021 C291.935981,1761.11021 290.254206,1759.72648 289.927892,1757.78926" id="Fill-45" fill="#0086B4"></path>
                    <path d="M609.871116,217.749726 C609.871116,205.130931 599.613739,194.899682 586.962719,194.899682 C574.309161,194.899682 564.051784,205.130931 564.051784,217.749726 C564.051784,230.36852 574.309161,240.59977 586.962719,240.59977 C599.613739,240.59977 609.871116,230.36852 609.871116,217.749726" id="Fill-51" fill="#FFFFFF"></path>
                    <path d="M586.96145,199.529129 C576.887813,199.529129 568.69331,207.702305 568.69331,217.749726 C568.69331,227.797147 576.887813,235.972773 586.96145,235.972773 C597.035087,235.972773 605.22959,227.797147 605.22959,217.749726 C605.22959,207.702305 597.035087,199.529129 586.96145,199.529129 M586.96145,243.7515 C572.584225,243.7515 560.89183,232.089534 560.89183,217.749726 C560.89183,203.412367 572.584225,191.747951 586.96145,191.747951 C601.338675,191.747951 613.03107,203.412367 613.03107,217.749726 C613.03107,232.089534 601.338675,243.7515 586.96145,243.7515" id="Fill-53" fill="#0086B4"></path>
                    <path d="M1080.14992,160.285525 C1077.96641,159.90814 1076.53834,157.819947 1076.9123,155.656277 C1077.28876,153.492607 1079.3493,152.033387 1081.53281,152.410772 C1083.68871,152.788156 1085.14439,154.876349 1084.76792,157.040019 C1084.41655,158.977259 1082.73499,160.335843 1080.83007,160.335843 C1080.60419,160.335843 1080.3758,160.310684 1080.14992,160.285525 L1080.14992,160.285525 Z M1051.08663,162.952374 C1049.98232,161.040293 1050.63487,158.599875 1052.5423,157.492881 C1054.45225,156.411046 1056.88423,157.065178 1057.98853,158.977259 C1059.09284,160.864181 1058.4428,163.329758 1056.53286,164.411593 L1056.53286,164.436752 C1055.90541,164.788978 1055.22777,164.96509 1054.55264,164.96509 C1053.16975,164.96509 1051.84207,164.235481 1051.08663,162.952374 L1051.08663,162.952374 Z M1100.88324,172.311505 C1099.47525,170.625855 1099.70113,168.10996 1101.38268,166.675899 C1103.06424,165.266998 1105.57402,165.493428 1106.9795,167.179078 L1107.0046,167.179078 C1108.41258,168.864728 1108.18419,171.380624 1106.50264,172.814684 C1105.7497,173.443658 1104.84618,173.745566 1103.94266,173.745566 C1102.81326,173.745566 1101.68386,173.242387 1100.88324,172.311505 L1100.88324,172.311505 Z M1035.97774,185.19289 C1033.91971,184.412963 1032.8656,182.123498 1033.61854,180.060463 C1034.37398,177.997429 1036.65538,176.915594 1038.7134,177.670363 C1040.79652,178.425131 1041.85063,180.739755 1041.09769,182.802789 C1040.49534,184.412963 1038.96438,185.419321 1037.35812,185.419321 C1036.90886,185.419321 1036.4295,185.343844 1035.97774,185.19289 L1035.97774,185.19289 Z M1113.03059,199.030316 C1110.84456,199.030316 1109.06513,197.218871 1109.06513,195.030042 L1109.06513,194.954565 L1109.06513,194.879088 C1109.06513,192.6651 1110.84456,190.903973 1113.05317,190.903973 C1115.26178,190.903973 1117.04373,192.6651 1117.04373,194.879088 L1117.04373,195.105519 C1116.99604,197.294348 1115.23668,199.030316 1113.05317,199.030316 L1113.03059,199.030316 Z M1033.54576,209.546759 C1032.79031,207.483724 1033.87203,205.19426 1035.95515,204.439491 C1038.01066,203.684722 1040.29456,204.766557 1041.0475,206.829592 C1041.80294,208.917785 1040.72123,211.20725 1038.66571,211.962018 C1038.21144,212.112972 1037.75968,212.188449 1037.31043,212.188449 C1035.67656,212.188449 1034.14559,211.182091 1033.54576,209.546759 L1033.54576,209.546759 Z M1101.25719,223.182912 C1099.57564,221.774011 1099.37486,219.258115 1100.80543,217.572465 C1102.21091,215.886815 1104.72069,215.660385 1106.40225,217.094445 C1108.0838,218.528506 1108.31219,221.044401 1106.87911,222.730051 C1106.07598,223.660933 1104.97418,224.138953 1103.81968,224.138953 C1102.91365,224.138953 1102.01013,223.837045 1101.25719,223.182912 L1101.25719,223.182912 Z M1052.41681,232.189818 C1050.50938,231.082824 1049.85935,228.617247 1050.96114,226.705166 C1052.06795,224.818245 1054.52503,224.164112 1056.40737,225.271106 C1058.31731,226.3781 1058.96986,228.818518 1057.86304,230.730599 C1057.11011,232.013706 1055.77992,232.718156 1054.39954,232.718156 C1053.72441,232.718156 1053.04426,232.542044 1052.41681,232.189818 L1052.41681,232.189818 Z M1076.76171,234.127058 C1076.38524,231.963388 1077.84092,229.875194 1079.99933,229.522969 C1082.18535,229.145585 1084.24086,230.604804 1084.61733,232.768474 C1084.9687,234.957303 1083.51303,237.020338 1081.35461,237.397722 C1081.13124,237.422881 1080.90536,237.44804 1080.67697,237.44804 C1078.76954,237.44804 1077.08798,236.064297 1076.76171,234.127058 L1076.76171,234.127058 Z" id="Fill-55" fill="#0086B4"></path>
                    <path d="M321.901975,81.9783123 C320.346446,80.415323 320.346446,77.869163 321.901975,76.3061737 C323.457503,74.7431844 325.966421,74.7431844 327.519441,76.3061737 C329.074969,77.869163 329.074969,80.415323 327.519441,81.9783123 C326.744185,82.759807 325.738109,83.1379495 324.711962,83.1379495 C323.683306,83.1379495 322.679739,82.759807 321.901975,81.9783123 M340.666168,100.835022 C339.110639,99.2720327 339.110639,96.7510822 340.666168,95.1880929 C342.224205,93.6251036 344.755703,93.6251036 346.311232,95.1880929 C347.869269,96.7510822 347.869269,99.2720327 346.311232,100.835022 C345.535976,101.616517 344.50732,102.019869 343.501244,102.019869 C342.475097,102.019869 341.446441,101.616517 340.666168,100.835022 M359.460468,119.716941 C357.904939,118.153952 357.904939,115.607792 359.460468,114.044803 C361.015996,112.481813 363.524914,112.481813 365.080443,114.044803 C366.635971,115.607792 366.635971,118.153952 365.080443,119.716941 C364.300169,120.498436 363.299111,120.876578 362.270455,120.876578 C361.264379,120.876578 360.235723,120.498436 359.460468,119.716941 M378.252259,138.59886 C376.671641,137.035871 376.671641,134.489711 378.252259,132.926722 C379.807788,131.363732 382.316705,131.363732 383.872234,132.926722 C385.425254,134.489711 385.425254,137.035871 383.872234,138.59886 C383.094469,139.380355 382.063304,139.758498 381.062246,139.758498 C380.03359,139.758498 379.030023,139.380355 378.252259,138.59886 M397.016452,157.45557 C395.460923,155.892581 395.460923,153.37163 397.016452,151.808641 C398.57449,150.245652 401.105987,150.245652 402.661516,151.808641 C404.219554,153.37163 404.219554,155.892581 402.661516,157.45557 C401.886261,158.237065 400.857604,158.640417 399.828948,158.640417 C398.825381,158.640417 397.796725,158.237065 397.016452,157.45557 M415.810752,176.337489 C414.255223,174.7745 414.255223,172.22834 415.810752,170.665351 C417.366281,169.102361 419.875198,169.102361 421.430727,170.665351 C422.986256,172.22834 422.986256,174.7745 421.430727,176.337489 C420.650454,177.118984 419.649396,177.497127 418.62074,177.497127 C417.592083,177.497127 416.586008,177.118984 415.810752,176.337489 M434.577454,195.194199 C433.021925,193.63121 433.021925,191.110259 434.577454,189.54727 C436.130474,187.984281 438.666989,187.984281 440.222518,189.54727 C441.775538,191.110259 441.775538,193.63121 440.222518,195.194199 C439.444754,195.975694 438.413589,196.379046 437.412531,196.379046 C436.383875,196.379046 435.355218,195.975694 434.577454,195.194199 M453.366736,214.076118 C451.811208,212.513129 451.811208,209.992178 453.366736,208.40398 C454.924774,206.84099 457.433691,206.84099 458.98922,208.40398 C460.569838,209.992178 460.569838,212.513129 458.98922,214.076118 C458.211456,214.857613 457.207889,215.260965 456.179233,215.260965 C455.148068,215.260965 454.14701,214.857613 453.366736,214.076118 M476.100037,217.681077 C476.100037,215.462641 477.881368,213.672766 480.089215,213.672766 C482.297063,213.672766 484.078394,215.462641 484.078394,217.681077 C484.078394,219.899514 482.297063,221.689389 480.089215,221.689389 C477.881368,221.689389 476.100037,219.899514 476.100037,217.681077 M502.669472,217.681077 C502.669472,215.462641 504.450803,213.672766 506.65865,213.672766 C508.841409,213.672766 510.64532,215.462641 510.64532,217.681077 C510.64532,219.899514 508.841409,221.689389 506.65865,221.689389 C504.450803,221.689389 502.669472,219.899514 502.669472,217.681077 M529.238907,217.681077 C529.238907,215.462641 531.020238,213.672766 533.225577,213.672766 C535.410844,213.672766 537.192175,215.462641 537.192175,217.681077 C537.192175,219.899514 535.410844,221.689389 533.225577,221.689389 C531.020238,221.689389 529.238907,219.899514 529.238907,217.681077" id="Fill-65" fill="#0086B4"></path>
                    <path d="M862.687321,1466.62284 C853.433191,1466.62284 848.622532,1461.13824 844.757135,1456.72761 C841.224191,1452.69706 838.433066,1449.5109 832.684589,1449.5109 C826.93115,1449.5109 824.137544,1452.69706 820.599638,1456.73016 C816.731759,1461.13824 811.918619,1466.62284 802.659527,1466.62284 C793.395473,1466.62284 788.579852,1461.13824 784.709492,1456.73016 C781.169105,1452.69706 778.373018,1449.5109 772.609655,1449.5109 C766.851254,1449.5109 764.052686,1452.69706 760.512299,1456.73016 C759.055952,1458.38574 756.56999,1458.52604 754.947416,1457.02097 C753.334766,1455.52099 753.205754,1452.96237 754.664582,1451.29913 C758.534942,1446.8936 763.348082,1441.409 772.609655,1441.409 C781.873709,1441.409 786.68933,1446.89615 790.55969,1451.30168 C794.100077,1455.33477 796.896164,1458.52094 802.659527,1458.52094 C808.415447,1458.52094 811.209053,1455.33477 814.74944,1451.30168 C818.614838,1446.89615 823.427978,1441.409 832.684589,1441.409 C841.938719,1441.409 846.746896,1446.89615 850.612294,1451.30423 C854.147719,1455.33477 856.938844,1458.52094 862.687321,1458.52094 C868.438279,1458.52094 871.231885,1455.33477 874.76731,1451.30423 C878.635189,1446.89615 883.445848,1441.409 892.70494,1441.409 C901.956589,1441.409 906.767248,1446.89615 910.630165,1451.30168 C912.086512,1452.96492 911.964943,1455.5312 910.349812,1457.03117 C908.7322,1458.52859 906.2512,1458.3985 904.792372,1456.74291 L904.779967,1456.72761 C901.242061,1452.69451 898.450936,1449.5109 892.70494,1449.5109 C886.951501,1449.5109 884.155414,1452.69706 880.62247,1456.73016 C876.754591,1461.13824 871.941451,1466.62284 862.687321,1466.62284" id="Fill-71" fill="#0086B4"></path>
                    <path d="M641.487813,459.645023 C632.236374,459.645023 627.425825,454.160426 623.560515,449.749789 C620.027651,445.719248 617.236589,442.533079 611.488243,442.533079 C605.734935,442.533079 602.938912,445.719248 599.398605,449.75234 C595.533295,454.160426 590.720264,459.645023 581.461383,459.645023 C572.19754,459.645023 567.384509,454.160426 563.514237,449.754891 C559.973931,445.719248 557.177907,442.533079 551.414675,442.533079 C545.651444,442.533079 542.85542,445.719248 539.315114,449.75234 C537.861281,451.410474 535.372894,451.550778 533.752838,450.045702 C532.137744,448.545729 532.008735,445.984549 533.46753,444.323864 C537.337802,439.918329 542.150832,434.431181 551.414675,434.431181 C560.678519,434.431181 565.49403,439.918329 569.364302,444.323864 C572.904609,448.356956 575.700632,451.543125 581.461383,451.543125 C587.214691,451.543125 590.010715,448.356956 593.551021,444.323864 C597.416331,439.918329 602.229362,434.431181 611.488243,434.431181 C620.742163,434.431181 625.550231,439.918329 629.415541,444.326415 C632.950886,448.359507 635.741948,451.543125 641.487813,451.543125 C647.23864,451.543125 650.034663,448.356956 653.570008,444.326415 C657.437799,439.918329 662.248349,434.431181 671.504749,434.431181 C680.758669,434.431181 685.569218,439.915778 689.434528,444.323864 C690.890842,445.9871 690.766795,448.553382 689.151701,450.053355 C687.544049,451.550778 685.058144,451.428331 683.594387,449.762544 L683.581982,449.749789 C680.046638,445.719248 677.253095,442.533079 671.504749,442.533079 C665.751441,442.533079 662.957899,445.719248 659.422554,449.75234 C655.557244,454.160426 650.744213,459.645023 641.487813,459.645023" id="Fill-73" fill="#0086B4"></path>
                    <g id="Group-140" opacity="0.300000012" stroke-width="1" fill="none" transform="translate(25.870084, 1259.533629)">
                        <polygon id="Fill-120" fill="#0098CC" points="30.0809233 23.626414 0 0 0 47.252828"></polygon>
                        <polygon id="Fill-122" fill="#0098CC" points="30.0809233 81.9236689 0 58.2972549 0 105.550083"></polygon>
                        <polygon id="Fill-124" fill="#0098CC" points="30.0809233 140.220675 0 116.594261 0 163.844597"></polygon>
                        <polygon id="Fill-126" fill="#0098CC" points="30.0809233 198.515438 0 174.889024 0 222.141852"></polygon>
                        <polygon id="Fill-128" fill="#0098CC" points="64.945494 52.7737959 34.8645708 29.149873 34.8645708 76.4002099"></polygon>
                        <polygon id="Fill-130" fill="#0098CC" points="64.945494 111.070802 34.8645708 87.4443876 34.8645708 134.697216"></polygon>
                        <polygon id="Fill-132" fill="#0098CC" points="64.945494 169.368056 34.8645708 145.741642 34.8645708 192.99447"></polygon>
                        <polygon id="Fill-134" fill="#0098CC" points="99.8100648 81.9236689 69.7291415 58.2972549 69.7291415 105.550083"></polygon>
                        <polygon id="Fill-136" fill="#0098CC" points="99.8100648 140.220675 69.7291415 116.594261 69.7291415 163.844597"></polygon>
                        <polygon id="Fill-138" fill="#0099CC" points="134.657836 111.070802 104.574442 87.4443876 104.574442 134.697216"></polygon>
                    </g>
                    <polygon id="Fill-143" fill="#FFFFFF" opacity="0.300000012" points="837.387802 989.848839 861.087457 989.848839 861.087457 978.817783 837.387802 978.817783"></polygon>
                    <polygon id="Fill-145" fill="#FFFFFF" opacity="0.300000012" points="899.006904 1032.3972 951.146145 1032.3972 951.146145 1021.36614 899.006904 1021.36614"></polygon>
                    <polygon id="Fill-149" fill="#FFFFFF" opacity="0.300000012" points="965.365938 1032.3972 1049.10472 1032.3972 1049.10472 1021.36614 965.365938 1021.36614"></polygon>
                    <polygon id="Fill-155" fill="#FFFFFF" opacity="0.300000012" points="1061.74453 1032.3972 1107.56387 1032.3972 1107.56387 1021.36614 1061.74453 1021.36614"></polygon>
                    <polygon id="Fill-157" fill="#FFFFFF" opacity="0.300000012" points="1117.04373 1032.3972 1139.16341 1032.3972 1139.16341 1021.36614 1117.04373 1021.36614"></polygon>
                    <polygon id="Fill-159" fill="#FFFFFF" opacity="0.300000012" points="872.147296 989.848839 1008.02532 989.848839 1008.02532 978.817783 872.147296 978.817783"></polygon>
                    <polygon id="Fill-161" fill="#FFFFFF" opacity="0.300000012" points="872.147296 1011.91095 891.10702 1011.91095 891.10702 1000.8799 872.147296 1000.8799"></polygon>
                    <polygon id="Fill-167" fill="#FFFFFF" opacity="0.300000012" points="899.006904 1011.91095 925.866513 1011.91095 925.866513 1000.8799 899.006904 1000.8799"></polygon>
                    <polygon id="Fill-169" fill="#FFFFFF" opacity="0.300000012" points="933.766398 1011.91095 959.04603 1011.91095 959.04603 1000.8799 933.766398 1000.8799"></polygon>
                    <polygon id="Fill-171" fill="#FFFFFF" opacity="0.300000012" points="965.365938 1011.91095 1049.10472 1011.91095 1049.10472 1000.8799 965.365938 1000.8799"></polygon>
                    <polygon id="Fill-173" fill="#FFFFFF" opacity="0.300000012" points="1014.34522 989.848839 1039.62486 989.848839 1039.62486 978.817783 1014.34522 978.817783"></polygon>
                    <polygon id="Fill-175" fill="#FFFFFF" opacity="0.300000012" points="1061.74453 989.848839 1107.56387 989.848839 1107.56387 978.817783 1061.74453 978.817783"></polygon>
                </g>
            </g>
            <g id="pattern" opacity="0.399118823" mask="url(#mask-2)">
                <g transform="translate(615.500000, 893.418726) scale(-1, 1) translate(-615.500000, -893.418726) translate(-154.000000, -43.491798)">
                    <path d="M657.314168,1250.08955 C657.314168,1244.8627 653.070098,1240.62305 647.832481,1240.62305 C642.597253,1240.62305 638.353183,1244.8627 638.353183,1250.08955 C638.353183,1255.3164 642.597253,1259.55606 647.832481,1259.55606 C653.070098,1259.55606 657.314168,1255.3164 657.314168,1250.08955" id="Fill-1" fill-opacity="0.3" fill="#FFFFFF"></path>
                    <path d="M184.86961,376.876345 C184.86961,371.649499 180.623686,367.40984 175.386729,367.40984 C170.15216,367.40984 165.908624,371.649499 165.908624,376.876345 C165.908624,382.105576 170.15216,386.342851 175.386729,386.342851 C180.623686,386.342851 184.86961,382.105576 184.86961,376.876345" id="Fill-3" fill="#FFFFFF" opacity="0.300000012"></path>
                    <path d="M274.934292,1768.14943 C274.934292,1762.92325 270.690756,1758.68412 265.451411,1758.68412 C260.216841,1758.68412 255.973306,1762.92325 255.973306,1768.14943 C255.973306,1773.37562 260.216841,1777.61713 265.451411,1777.61713 C270.690756,1777.61713 274.934292,1773.37562 274.934292,1768.14943" id="Fill-9" fill="#0099CD" opacity="0.300000012"></path>
                    <g id="Group-16" opacity="0.300000012" stroke-width="1" fill="none" transform="translate(1320.948665, 348.774850)">
                        <polygon id="Fill-10" fill="#FFFFFF" points="35.7994729 55.5592128 66.9294493 31.0389539 66.9294493 80.0794717"></polygon>
                        <polygon id="Fill-12" fill="#FFFFFF" points="35.7994729 115.673396 66.9294493 91.153137 66.9294493 140.193655"></polygon>
                        <polygon id="Fill-14" fill="#FFFFFF" points="0 85.6163043 31.1299764 61.0960454 31.1299764 110.136563"></polygon>
                    </g>
                    <path d="M334.977413,191.977415 C334.977413,180.649947 325.78055,171.466653 314.436345,171.466653 C303.092139,171.466653 293.895277,180.649947 293.895277,191.977415 C293.895277,203.304884 303.092139,212.488178 314.436345,212.488178 C325.78055,212.488178 334.977413,203.304884 334.977413,191.977415" id="Fill-13" fill="#FFFFFF" opacity="0.300000012"></path>
                    <path d="M465.334189,1542.2211 C451.808501,1542.2211 440.842916,1553.17053 440.842916,1566.6763 C440.842916,1580.18065 451.808501,1591.13008 465.334189,1591.13008 C478.859877,1591.13008 489.825462,1580.18065 489.825462,1566.6763 C489.825462,1553.17053 478.859877,1542.2211 465.334189,1542.2211 Z" id="Fill-18" fill="#FFFFFF" opacity="0.300000012"></path>
                    <path d="M798.381081,218.564097 C798.381081,195.037658 779.279186,175.964235 755.717628,175.964235 C732.156069,175.964235 713.056646,195.037658 713.056646,218.564097 C713.056646,242.090536 732.156069,261.161491 755.717628,261.161491 C779.279186,261.161491 798.381081,242.090536 798.381081,218.564097" id="Fill-22" fill="#FFFFFF" opacity="0.300000012"></path>
                    <path d="M289.155031,622.703428 C289.155031,617.474197 284.910961,613.236922 279.673344,613.236922 C274.438115,613.236922 270.194045,617.474197 270.194045,622.703428 C270.194045,627.930274 274.438115,632.169934 279.673344,632.169934 C284.910961,632.169934 289.155031,627.930274 289.155031,622.703428" id="Fill-24" fill="#FFFFFF"></path>
                    <path d="M283.624743,617.744782 C280.451928,617.744782 277.86873,620.324169 277.86873,623.492303 C277.86873,626.66285 280.451928,629.239825 283.624743,629.239825 C286.797558,629.239825 289.380757,626.66285 289.380757,623.492303 C289.380757,620.324169 286.797558,617.744782 283.624743,617.744782 M283.624743,636.903187 C276.220702,636.903187 270.194045,630.887834 270.194045,623.492303 C270.194045,616.096773 276.220702,610.08142 283.624743,610.08142 C291.028784,610.08142 297.055441,616.096773 297.055441,623.492303 C297.055441,630.887834 291.028784,636.903187 283.624743,636.903187" id="Fill-26" fill="#0086B4"></path>
                    <path d="M475.604723,1566.1608 C475.604723,1560.93461 471.360653,1556.6931 466.123036,1556.6931 C460.887807,1556.6931 456.643737,1560.93461 456.643737,1566.1608 C456.643737,1571.38699 460.887807,1575.62612 466.123036,1575.62612 C471.360653,1575.62612 475.604723,1571.38699 475.604723,1566.1608" id="Fill-32" fill="#FFFFFF"></path>
                    <path d="M465.334189,1561.20096 C462.161374,1561.20096 459.578175,1563.78035 459.578175,1566.9509 C459.578175,1570.11903 462.161374,1572.69842 465.334189,1572.69842 C468.507004,1572.69842 471.090202,1570.11903 471.090202,1566.9509 C471.090202,1563.78035 468.507004,1561.20096 465.334189,1561.20096 M465.334189,1580.35937 C457.930148,1580.35937 451.903491,1574.34402 451.903491,1566.9509 C451.903491,1559.55296 457.930148,1553.5376 465.334189,1553.5376 C472.73823,1553.5376 478.764887,1559.55296 478.764887,1566.9509 C478.764887,1574.34402 472.73823,1580.35937 465.334189,1580.35937" id="Fill-34" fill="#0086B4"></path>
                    <path d="M1084.72759,556.212495 C1081.55506,556.212495 1078.96968,558.791882 1078.96968,561.960016 C1078.96968,565.130563 1081.55506,567.707537 1084.72759,567.707537 C1087.90012,567.707537 1090.48309,565.130563 1090.48309,561.960016 C1090.48309,558.791882 1087.90012,556.212495 1084.72759,556.212495 M1084.72759,575.370899 C1077.3218,575.370899 1071.29569,569.355546 1071.29569,561.960016 C1071.29569,554.564486 1077.3218,548.549133 1084.72759,548.549133 C1092.13097,548.549133 1098.15708,554.564486 1098.15708,561.960016 C1098.15708,569.355546 1092.13097,575.370899 1084.72759,575.370899" id="Fill-36" fill="#0086B4"></path>
                    <path d="M1255.37405,1437.77209 C1252.20152,1437.77209 1249.61855,1440.34907 1249.61855,1443.51961 C1249.61855,1446.68775 1252.20152,1449.26955 1255.37405,1449.26955 C1258.54658,1449.26955 1261.13196,1446.68775 1261.13196,1443.51961 C1261.13196,1440.34907 1258.54658,1437.77209 1255.37405,1437.77209 M1255.37405,1456.9305 C1247.97067,1456.9305 1241.94456,1450.91515 1241.94456,1443.51961 C1241.94456,1436.12408 1247.97067,1430.10873 1255.37405,1430.10873 C1262.77984,1430.10873 1268.80595,1436.12408 1268.80595,1443.51961 C1268.80595,1450.91515 1262.77984,1456.9305 1255.37405,1456.9305" id="Fill-38" fill="#0086B4"></path>
                    <path d="M222.234878,1464.89694 C220.050935,1464.49391 218.620076,1462.42843 218.996618,1460.25967 C219.370649,1458.07076 221.431588,1456.635 223.615531,1457.01283 C225.771861,1457.39066 227.227823,1459.45615 226.853791,1461.64758 C226.499842,1463.5846 224.817955,1464.94731 222.935246,1464.94731 C222.686728,1464.94731 222.460803,1464.92212 222.234878,1464.89694 M193.165846,1467.56695 C192.058813,1465.6526 192.711485,1463.20928 194.621808,1462.10098 L194.646911,1462.10098 C196.554723,1460.99015 198.987183,1461.64758 200.069113,1463.5846 C201.171126,1465.47376 200.520964,1467.91708 198.613151,1469.0279 C197.985582,1469.40574 197.305296,1469.57954 196.630031,1469.57954 C195.249377,1469.57954 193.91893,1468.84906 193.165846,1467.56695 M242.969783,1476.93468 C241.561517,1475.24703 241.762339,1472.72814 243.471839,1471.2949 C245.153726,1469.88181 247.664005,1470.10851 249.067251,1471.79616 L249.092354,1471.79616 C250.50062,1473.48381 250.274695,1476.00269 248.590298,1477.43846 C247.837214,1478.04551 246.936024,1478.37296 246.029813,1478.37296 C244.900188,1478.37296 243.770562,1477.86667 242.969783,1476.93468 M178.051455,1489.80869 C175.993027,1489.05303 174.938709,1486.76084 175.694303,1484.69284 C176.447387,1482.60217 178.731741,1481.54424 180.78766,1482.2999 C182.871191,1483.05808 183.925508,1485.35027 183.172425,1487.43842 C182.569958,1489.05303 181.066301,1490.05806 179.432109,1490.05806 C178.982769,1490.05806 178.503306,1489.98501 178.051455,1489.80869 M255.142126,1503.68522 C252.933081,1503.68522 251.153293,1501.87414 251.153293,1499.68272 C251.153293,1499.65753 251.153293,1499.63234 251.175885,1499.60463 C251.153293,1499.58196 251.153293,1499.55677 251.153293,1499.53158 C251.153293,1497.31496 252.933081,1495.52404 255.142126,1495.52404 C257.351172,1495.52404 259.13347,1497.31496 259.13347,1499.53158 L259.13347,1499.78347 C259.085775,1501.94971 257.326069,1503.68522 255.142126,1503.68522 M175.618995,1514.21667 C174.891014,1512.15119 175.945331,1509.859 178.028863,1509.10334 C180.087292,1508.34767 182.369135,1509.40561 183.124729,1511.49628 C183.877813,1513.58695 182.795883,1515.87662 180.739964,1516.60709 C180.285604,1516.78593 179.833754,1516.8615 179.384414,1516.8615 C177.750222,1516.8615 176.221462,1515.85143 175.618995,1514.21667 M243.343815,1527.86902 C241.661928,1526.45593 241.461105,1523.91437 242.891964,1522.25191 L242.869372,1522.25191 C244.297721,1520.56426 246.808,1520.33756 248.492397,1521.77332 C250.174284,1523.1839 250.400209,1525.72545 248.96684,1527.4131 C248.191164,1528.34509 247.061538,1528.8262 245.929402,1528.8262 C245.025702,1528.8262 244.099409,1528.49874 243.343815,1527.86902 M194.493783,1536.88662 L194.493783,1536.85892 C192.585971,1535.75313 191.935809,1533.30729 193.037822,1531.39294 C194.144855,1529.50378 196.602418,1528.85138 198.485127,1529.95969 C200.39545,1531.068 201.048122,1533.5088 199.941089,1535.42567 C199.188005,1536.7103 197.857557,1537.41559 196.476904,1537.41559 C195.801639,1537.41559 195.121353,1537.23927 194.493783,1536.88662 M218.843491,1538.82616 C218.469459,1536.63222 219.922911,1534.56673 222.081751,1534.19142 L222.106854,1534.21661 C224.268204,1533.83877 226.326633,1535.29721 226.700664,1537.46597 C227.054614,1539.63221 225.598652,1541.69517 223.437301,1542.07552 C223.213887,1542.12338 222.987962,1542.15109 222.762036,1542.15109 C220.851714,1542.15109 219.169827,1540.7657 218.843491,1538.82616" id="Fill-45" fill="#0086B4"></path>
                    <path d="M775.820329,218.010306 C775.820329,205.376411 765.562268,195.132917 752.910407,195.132917 C740.256007,195.132917 729.997947,205.376411 729.997947,218.010306 C729.997947,230.644202 740.256007,240.887695 752.910407,240.887695 C765.562268,240.887695 775.820329,230.644202 775.820329,218.010306" id="Fill-51" fill="#FFFFFF"></path>
                    <path d="M752.909138,199.767905 C742.83483,199.767905 734.639782,207.950862 734.639782,218.010306 C734.639782,228.069751 742.83483,236.255161 752.909138,236.255161 C762.983445,236.255161 771.178493,228.069751 771.178493,218.010306 C771.178493,207.950862 762.983445,199.767905 752.909138,199.767905 M752.909138,244.043197 C738.530956,244.043197 726.837782,232.367275 726.837782,218.010306 C726.837782,203.65579 738.530956,191.977415 752.909138,191.977415 C767.287319,191.977415 778.980493,203.65579 778.980493,218.010306 C778.980493,232.367275 767.287319,244.043197 752.909138,244.043197" id="Fill-53" fill="#0086B4"></path>
                    <path d="M1246.13043,160.477338 C1243.94677,160.099502 1242.51861,158.00881 1242.89259,155.84255 C1243.26908,153.676291 1245.32975,152.215325 1247.51341,152.593161 C1249.66946,152.970997 1251.12523,155.061689 1250.74874,157.227949 C1250.39734,159.167507 1248.71568,160.527716 1246.81062,160.527716 C1246.58473,160.527716 1246.35632,160.502527 1246.13043,160.477338 L1246.13043,160.477338 Z M1217.06521,163.147378 C1215.96083,161.23301 1216.61341,158.789671 1218.52098,157.681352 C1220.43105,156.598222 1222.86319,157.253138 1223.96757,159.167507 C1225.07195,161.056686 1224.42187,163.525214 1222.5118,164.608344 L1222.5118,164.633533 C1221.88431,164.98618 1221.20662,165.162503 1220.53145,165.162503 C1219.14846,165.162503 1217.8207,164.432021 1217.06521,163.147378 L1217.06521,163.147378 Z M1266.86513,172.51771 C1265.45704,170.830043 1265.68294,168.311136 1267.36461,166.87536 C1269.04627,165.464772 1271.55622,165.691474 1272.96179,167.379141 L1272.98689,167.379141 C1274.39498,169.066808 1274.16657,171.585714 1272.4849,173.021491 C1271.73192,173.651218 1270.82834,173.953486 1269.92475,173.953486 C1268.79528,173.953486 1267.6658,173.449705 1266.86513,172.51771 L1266.86513,172.51771 Z M1201.95531,185.41451 C1199.89715,184.633649 1198.84297,182.341444 1199.59595,180.275941 C1200.35145,178.210438 1202.63299,177.127308 1204.69115,177.88298 C1206.77441,178.638652 1207.82859,180.956046 1207.0756,183.021549 C1206.47322,184.633649 1204.94215,185.641212 1203.33578,185.641212 C1202.8865,185.641212 1202.4071,185.565644 1201.95531,185.41451 L1201.95531,185.41451 Z M1279.01328,199.268494 C1276.82712,199.268494 1275.04756,197.454882 1275.04756,195.263433 L1275.04756,195.187866 L1275.04756,195.112299 C1275.04756,192.895662 1276.82712,191.132427 1279.03587,191.132427 C1281.24463,191.132427 1283.02669,192.895662 1283.02669,195.112299 L1283.02669,195.339001 C1282.979,197.530449 1281.21953,199.268494 1279.03587,199.268494 L1279.01328,199.268494 Z M1199.52316,209.797523 C1198.76767,207.73202 1199.84946,205.439815 1201.93272,204.684143 C1203.98837,203.928471 1206.27242,205.011601 1207.0254,207.077104 C1207.7809,209.167796 1206.69911,211.460001 1204.64346,212.215673 C1204.18916,212.366807 1203.73737,212.442374 1203.28809,212.442374 C1201.65411,212.442374 1200.12304,211.434812 1199.52316,209.797523 L1199.52316,209.797523 Z M1267.23911,223.449995 C1265.55744,222.039407 1265.35665,219.520501 1266.78732,217.832834 C1268.19289,216.145167 1270.70284,215.918465 1272.38451,217.354242 C1274.06617,218.790018 1274.29458,221.308924 1272.8614,222.996592 C1272.05821,223.928587 1270.95634,224.407179 1269.80177,224.407179 C1268.89567,224.407179 1267.99209,224.10491 1267.23911,223.449995 L1267.23911,223.449995 Z M1218.39548,232.467679 C1216.48792,231.35936 1215.83784,228.890832 1216.93971,226.976464 C1218.0466,225.087284 1220.50384,224.432368 1222.3863,225.540687 C1224.29637,226.649006 1224.94896,229.092345 1223.84207,231.006714 C1223.08909,232.291356 1221.75881,232.99665 1220.37834,232.99665 C1219.70316,232.99665 1219.02297,232.820326 1218.39548,232.467679 L1218.39548,232.467679 Z M1242.74199,234.407237 C1242.3655,232.240978 1243.82127,230.150285 1245.97983,229.797639 C1248.166,229.419803 1250.22165,230.880768 1250.59814,233.047028 C1250.94953,235.238476 1249.49376,237.303979 1247.3352,237.681815 C1247.11182,237.707004 1246.88592,237.732193 1246.65752,237.732193 C1244.74995,237.732193 1243.06829,236.346795 1242.74199,234.407237 L1242.74199,234.407237 Z" id="Fill-55" fill="#0086B4"></path>
                    <path d="M481.372743,739.511941 C479.189061,739.134105 477.758372,737.043413 478.134869,734.877153 C478.508856,732.710894 480.56955,731.249928 482.753232,731.627764 C484.911815,732.0056 486.365094,734.096292 485.991107,736.262552 C485.637199,738.202109 483.955513,739.562319 482.050438,739.562319 C481.82454,739.562319 481.598642,739.562319 481.372743,739.511941 L481.372743,739.511941 Z M452.307174,742.181981 C451.200273,740.267613 451.852868,737.824274 453.762963,736.715955 C455.670547,735.632825 458.127818,736.287741 459.209619,738.202109 C460.311501,740.116478 459.661416,742.559817 457.753831,743.668136 C457.126336,744.020783 456.446131,744.197106 455.770947,744.197106 C454.390458,744.197106 453.060168,743.466624 452.307174,742.181981 L452.307174,742.181981 Z M502.105179,751.552313 L502.105179,751.552313 C500.69708,749.864646 500.897878,747.345739 502.607175,745.935152 C504.288861,744.499375 506.798841,744.726077 508.20192,746.413744 C509.635119,748.101411 509.409221,750.620317 507.727534,752.056094 C506.97203,752.685821 506.070947,752.988089 505.164844,752.988089 C504.035353,752.988089 502.880763,752.509497 502.105179,751.552313 L502.105179,751.552313 Z M437.194584,764.449113 C435.13891,763.693441 434.057109,761.376047 434.810103,759.310544 C435.590707,757.245041 437.874789,756.161911 439.930462,756.942772 C442.013746,757.698444 443.067937,759.990649 442.314943,762.056152 C441.712548,763.693441 440.18397,764.701003 438.575073,764.701003 C438.125787,764.701003 437.64889,764.600247 437.194584,764.449113 L437.194584,764.449113 Z M514.253482,778.303097 C512.06729,778.303097 510.287714,776.514674 510.287714,774.298036 L510.287714,774.247658 L510.287714,774.172091 C510.287714,771.955454 512.06729,770.16703 514.276072,770.16703 C516.484855,770.16703 518.26694,771.955454 518.26694,774.172091 L518.26694,774.398793 C518.219251,776.565052 516.459755,778.303097 514.276072,778.303097 L514.253482,778.303097 Z M434.762413,788.832126 C434.009419,786.766622 435.088711,784.474418 437.171994,783.718746 C439.230178,782.963074 441.51426,784.046204 442.267254,786.111707 C443.020248,788.202399 441.940956,790.494604 439.882773,791.250276 C439.430976,791.40141 438.97667,791.476977 438.527383,791.476977 C436.870797,791.476977 435.339709,790.469415 434.762413,788.832126 L434.762413,788.832126 Z M502.481676,802.509787 C500.797479,801.07401 500.599191,798.555104 502.00478,796.867437 C503.435468,795.179769 505.945448,794.978257 507.627135,796.388844 C509.308822,797.824621 509.50962,800.343527 508.101521,802.031195 C507.300838,802.96319 506.196446,803.441782 505.041855,803.441782 C504.135753,803.441782 503.23467,803.139513 502.481676,802.509787 L502.481676,802.509787 Z M453.609854,811.502282 C451.704779,810.393963 451.077284,807.925435 452.181675,806.036255 C453.286066,804.121887 455.718237,803.466971 457.628332,804.57529 C459.535917,805.708798 460.188512,808.152137 459.05651,810.066506 C458.328616,811.325959 457.000837,812.031252 455.617838,812.031252 C454.942653,812.031252 454.262449,811.880118 453.609854,811.502282 L453.609854,811.502282 Z M477.95917,813.44184 C477.580163,811.275581 479.063562,809.184888 481.219635,808.832241 C483.380727,808.454406 485.464011,809.915371 485.815408,812.081631 C486.191905,814.273079 484.736117,816.338582 482.575024,816.716418 C482.351636,816.741607 482.125737,816.766796 481.899839,816.766796 C479.989744,816.766796 478.308058,815.381398 477.95917,813.44184 L477.95917,813.44184 Z" id="Fill-57" fill="#0086B4"></path>
                    <path d="M487.832022,82.0764155 C486.27639,80.5115558 486.27639,77.9623488 487.832022,76.3974891 C489.387654,74.8326293 491.896739,74.8326293 493.449862,76.3974891 C495.005494,77.9623488 495.005494,80.5115558 493.449862,82.0764155 C492.674555,82.8588454 491.668412,83.2374405 490.642196,83.2374405 C489.613472,83.2374405 488.609838,82.8588454 487.832022,82.0764155 M506.597464,100.955691 C505.041832,99.3908312 505.041832,96.8668639 506.597464,95.3020042 C508.155605,93.7371445 510.687271,93.7371445 512.242904,95.3020042 C513.801045,96.8668639 513.801045,99.3908312 512.242904,100.955691 C511.467597,101.738121 510.438872,102.141956 509.432729,102.141956 C508.406514,102.141956 507.377789,101.738121 506.597464,100.955691 M525.393015,119.860206 C523.837382,118.295346 523.837382,115.746139 525.393015,114.18128 C526.948647,112.61642 529.457731,112.61642 531.013364,114.18128 C532.568996,115.746139 532.568996,118.295346 531.013364,119.860206 C530.233038,120.642636 529.231914,121.021231 528.203189,121.021231 C527.197046,121.021231 526.168322,120.642636 525.393015,119.860206 M544.186057,138.764721 C542.605333,137.199862 542.605333,134.650655 544.186057,133.085795 C545.741689,131.520935 548.250773,131.520935 549.806405,133.085795 C551.359529,134.650655 551.359529,137.199862 549.806405,138.764721 C549.028589,139.547151 547.997356,139.925746 546.996231,139.925746 C545.967506,139.925746 544.963873,139.547151 544.186057,138.764721 M562.951498,157.643997 C561.395866,156.079137 561.395866,153.55517 562.951498,151.99031 C564.50964,150.42545 567.041306,150.42545 568.596938,151.99031 C570.15508,153.55517 570.15508,156.079137 568.596938,157.643997 C567.821631,158.426427 566.792907,158.830261 565.764182,158.830261 C564.760548,158.830261 563.731824,158.426427 562.951498,157.643997 M581.747049,176.548512 C580.191417,174.983652 580.191417,172.434445 581.747049,170.869585 C583.302682,169.304726 585.811766,169.304726 587.367398,170.869585 C588.923031,172.434445 588.923031,174.983652 587.367398,176.548512 C586.587073,177.330942 585.585948,177.709537 584.557224,177.709537 C583.528499,177.709537 582.522356,177.330942 581.747049,176.548512 M600.515,195.427787 C598.959368,193.862928 598.959368,191.33896 600.515,189.774101 C602.068123,188.209241 604.604808,188.209241 606.16044,189.774101 C607.713563,191.33896 607.713563,193.862928 606.16044,195.427787 C605.382624,196.210217 604.35139,196.614052 603.350266,196.614052 C602.321541,196.614052 601.292816,196.210217 600.515,195.427787 M619.305533,214.332302 C617.749901,212.767443 617.749901,210.243475 619.305533,208.653376 C620.863674,207.088516 623.372759,207.088516 624.928391,208.653376 C626.509114,210.243475 626.509114,212.767443 624.928391,214.332302 C624.150575,215.114732 623.146941,215.518567 622.118217,215.518567 C621.086983,215.518567 620.085858,215.114732 619.305533,214.332302 M642.040346,217.941576 C642.040346,215.720484 643.821796,213.928468 646.02979,213.928468 C648.237785,213.928468 650.019235,215.720484 650.019235,217.941576 C650.019235,220.162667 648.237785,221.954684 646.02979,221.954684 C643.821796,221.954684 642.040346,220.162667 642.040346,217.941576 M668.61155,217.941576 C668.61155,215.720484 670.392999,213.928468 672.600994,213.928468 C674.783897,213.928468 676.587929,215.720484 676.587929,217.941576 C676.587929,220.162667 674.783897,221.954684 672.600994,221.954684 C670.392999,221.954684 668.61155,220.162667 668.61155,217.941576 M695.182753,217.941576 C695.182753,215.720484 696.964203,213.928468 699.169688,213.928468 C701.3551,213.928468 703.13655,215.720484 703.13655,217.941576 C703.13655,220.162667 701.3551,221.954684 699.169688,221.954684 C696.964203,221.954684 695.182753,220.162667 695.182753,217.941576" id="Fill-65" fill="#0086B4"></path>
                    <path d="M0,622.703428 C0,620.956987 1.78886609,619.547926 4.00857177,619.547926 C6.22575791,619.547926 8.01462401,620.956987 8.01462401,622.703428 C8.01462401,624.449869 6.22575791,625.85893 4.00857177,625.85893 C1.78886609,625.85893 0,624.449869 0,622.703428 M26.6843392,622.703428 C26.6843392,620.956987 28.4732053,619.547926 30.6903914,619.547926 C32.9075775,619.547926 34.6964436,620.956987 34.6964436,622.703428 C34.6964436,624.449869 32.9075775,625.85893 30.6903914,625.85893 C28.4732053,625.85893 26.6843392,624.449869 26.6843392,622.703428 M53.3661588,622.703428 C53.3661588,620.956987 55.1550249,619.547926 57.372211,619.547926 C59.5642019,619.547926 61.353068,620.956987 61.353068,622.703428 C61.353068,624.449869 59.5642019,625.85893 57.372211,625.85893 C55.1550249,625.85893 53.3661588,624.449869 53.3661588,622.703428 M80.0227831,622.703428 C80.0227831,620.956987 81.8116492,619.547926 84.0288354,619.547926 C86.243502,619.547926 88.0323681,620.956987 88.0323681,622.703428 C88.0323681,624.449869 86.243502,625.85893 84.0288354,625.85893 C81.8116492,625.85893 80.0227831,624.449869 80.0227831,622.703428 M106.704603,622.703428 C106.704603,620.956987 108.493469,619.547926 110.708135,619.547926 C112.925322,619.547926 114.714188,620.956987 114.714188,622.703428 C114.714188,624.449869 112.925322,625.85893 110.708135,625.85893 C108.493469,625.85893 106.704603,624.449869 106.704603,622.703428 M133.383903,622.703428 C133.383903,620.956987 135.172769,619.547926 137.389955,619.547926 C139.581946,619.547926 141.396007,620.956987 141.396007,622.703428 C141.396007,624.449869 139.581946,625.85893 137.389955,625.85893 C135.172769,625.85893 133.383903,624.449869 133.383903,622.703428 M160.043047,622.703428 C160.043047,620.956987 161.854589,619.547926 164.046579,619.547926 C166.263766,619.547926 168.052632,620.956987 168.052632,622.703428 C168.052632,624.449869 166.263766,625.85893 164.046579,625.85893 C161.854589,625.85893 160.043047,624.449869 160.043047,622.703428 M186.722347,622.703428 C186.722347,620.956987 188.511213,619.547926 190.728399,619.547926 C192.945585,619.547926 194.734451,620.956987 194.734451,622.703428 C194.734451,624.449869 192.945585,625.85893 190.728399,625.85893 C188.511213,625.85893 186.722347,624.449869 186.722347,622.703428 M213.404166,622.703428 C213.404166,620.956987 215.193033,619.547926 217.410219,619.547926 C219.60221,619.547926 221.391076,620.956987 221.391076,622.703428 C221.391076,624.449869 219.60221,625.85893 217.410219,625.85893 C215.193033,625.85893 213.404166,624.449869 213.404166,622.703428 M240.060791,622.703428 C240.060791,620.956987 241.874852,619.547926 244.066843,619.547926 C246.284029,619.547926 248.072895,620.956987 248.072895,622.703428 C248.072895,624.449869 246.284029,625.85893 244.066843,625.85893 C241.874852,625.85893 240.060791,624.449869 240.060791,622.703428" id="Fill-67" fill="#0086B4"></path>
                    <path d="M1028.65336,1468.37794 C1019.39861,1468.37794 1014.58763,1462.88678 1010.72198,1458.47087 C1007.1888,1454.4355 1004.39749,1451.24552 998.64863,1451.24552 C992.894808,1451.24552 990.101016,1454.4355 986.562874,1458.47342 C982.694738,1462.88678 977.881278,1468.37794 968.62157,1468.37794 C959.356899,1468.37794 954.540958,1462.88678 950.67034,1458.47342 C947.129718,1454.4355 944.333445,1451.24552 938.569698,1451.24552 C932.810914,1451.24552 930.01216,1454.4355 926.471537,1458.47342 C925.015093,1460.13099 922.528966,1460.27146 920.906284,1458.76458 C919.293526,1457.26281 919.164506,1454.70112 920.623431,1453.0359 C924.494049,1448.62509 929.307509,1443.13393 938.569698,1443.13393 C947.834369,1443.13393 952.65031,1448.62764 956.520928,1453.03845 C960.06155,1457.07637 962.857823,1460.26635 968.62157,1460.26635 C974.377873,1460.26635 977.171665,1457.07637 980.712287,1453.03845 C984.577942,1448.62764 989.391403,1443.13393 998.64863,1443.13393 C1007.90338,1443.13393 1012.71187,1448.62764 1016.57753,1453.041 C1020.11319,1457.07637 1022.9045,1460.26635 1028.65336,1460.26635 C1034.4047,1460.26635 1037.19849,1457.07637 1040.73415,1453.041 C1044.60229,1448.62764 1049.41327,1443.13393 1058.67298,1443.13393 C1067.92524,1443.13393 1072.73622,1448.62764 1076.59939,1453.03845 C1078.05584,1454.70368 1077.93426,1457.27303 1076.31902,1458.7748 C1074.7013,1460.27401 1072.22014,1460.14376 1070.76121,1458.48619 L1070.74881,1458.47087 C1067.21066,1454.43295 1064.41935,1451.24552 1058.67298,1451.24552 C1052.91915,1451.24552 1050.12288,1454.4355 1046.5897,1458.47342 C1042.72157,1462.88678 1037.9081,1468.37794 1028.65336,1468.37794" id="Fill-71" fill="#0086B4"></path>
                    <path d="M807.439129,460.195079 C798.187075,460.195079 793.376205,454.703918 789.510638,450.288003 C785.977539,446.252639 783.186292,443.062657 777.437563,443.062657 C771.683872,443.062657 768.887663,446.252639 765.34712,450.290557 C761.481553,454.703918 756.668202,460.195079 747.408705,460.195079 C738.144245,460.195079 733.330894,454.703918 729.460364,450.293111 C725.919822,446.252639 723.123613,443.062657 717.359997,443.062657 C711.596382,443.062657 708.800172,446.252639 705.25963,450.290557 C703.805701,451.950676 701.317149,452.091147 699.696985,450.584271 C698.081783,449.082502 697.952765,446.518258 699.411657,444.855585 C703.282187,440.444778 708.095538,434.951064 717.359997,434.951064 C726.624457,434.951064 731.440289,440.444778 735.310819,444.855585 C738.851361,448.893504 741.64757,452.083485 747.408705,452.083485 C753.162396,452.083485 755.958605,448.893504 759.499147,444.855585 C763.364715,440.444778 768.178065,434.951064 777.437563,434.951064 C786.692098,434.951064 791.500487,440.444778 795.366054,444.858139 C798.901634,448.896058 801.692882,452.083485 807.439129,452.083485 C813.190339,452.083485 815.986549,448.893504 819.522129,444.858139 C823.390177,440.444778 828.201047,434.951064 837.458063,434.951064 C846.712599,434.951064 851.523468,440.442224 855.389036,444.855585 C856.845447,446.520812 856.721391,449.090164 855.106189,450.591933 C853.498431,452.091147 851.01236,451.968554 849.548506,450.300773 L849.5361,450.288003 C846.000521,446.252639 843.206792,443.062657 837.458063,443.062657 C831.704372,443.062657 828.910644,446.252639 825.375064,450.290557 C821.509497,454.703918 816.696146,460.195079 807.439129,460.195079" id="Fill-73" fill="#0086B4"></path>
                    <g id="Group-77" stroke-width="1" fill="none" transform="translate(504.334880, 1601.166177)">
                        <mask id="mask-10" fill="white">
                            <use xlink:href="#path-9"></use>
                        </mask>
                        <g id="Clip-76"></g>
                        <path d="M1.1662511,6.75830638 C-0.388750367,5.21355064 -0.388750367,2.72200912 1.1662511,1.17725337 C2.72125257,-0.39241779 5.25440012,-0.39241779 6.80940158,1.17725337 C8.36440305,2.72200912 8.36440305,5.21355064 6.80940158,6.75830638 C6.03190085,7.53068426 5.00359343,7.9293309 3.97528601,7.9293309 C2.97456732,7.9293309 1.9462599,7.53068426 1.1662511,6.75830638 M19.951672,25.4199524 C18.3966706,23.8751967 18.3966706,21.3562482 19.951672,19.813984 C21.5066735,18.2692282 24.0147404,18.2692282 25.5697419,19.813984 C27.1272514,21.3562482 27.1272514,23.8751967 25.5697419,25.4199524 C24.7922411,26.1923303 23.7915224,26.5660615 22.760707,26.5660615 C21.7323995,26.5660615 20.7316808,26.1923303 19.951672,25.4199524 M38.7145204,44.056683 C37.1595189,42.5119273 37.1595189,40.0203857 38.7145204,38.4731384 C40.2670138,36.9283827 42.8026694,36.9283827 44.3576709,38.4731384 C45.9101643,40.0203857 45.9101643,42.5119273 44.3576709,44.056683 C43.5776621,44.8290609 42.5493546,45.225216 41.548636,45.225216 C40.5178205,45.225216 39.4895131,44.8290609 38.7145204,44.056683 M57.4974333,62.718329 C55.9424318,61.1735733 55.9424318,58.6571163 57.4974333,57.1123606 C59.0524347,55.5676048 61.5605016,55.5676048 63.1155031,57.1123606 C64.6705045,58.6571163 64.6705045,61.1735733 63.1155031,62.718329 C62.3405104,63.4907069 61.3347756,63.8644381 60.3064682,63.8644381 C59.3057495,63.8644381 58.2774421,63.4907069 57.4974333,62.718329 M76.2828542,81.379975 C74.7278527,79.8078123 74.7278527,77.3162708 76.2828542,75.7740066 C77.8152831,74.2292509 80.3459226,74.2292509 81.900924,75.7740066 C83.4584336,77.3162708 83.4584336,79.8078123 81.900924,81.379975 C81.1234233,82.1523529 80.0976239,82.5260841 79.0918891,82.5260841 C78.0635817,82.5260841 77.062863,82.1523529 76.2828542,81.379975 M95.0457026,100.016706 C93.4907011,98.4719499 93.4907011,95.9804084 95.0457026,94.4331611 C96.600704,92.8659815 99.1338516,92.8659815 100.688853,94.4331611 C102.243855,95.9804084 102.243855,98.4719499 100.688853,100.016706 C99.9088442,100.789084 98.8805368,101.185239 97.8547375,101.185239 C96.8490026,101.185239 95.8206952,100.789084 95.0457026,100.016706 M113.828615,118.678352 C112.276122,117.133596 112.276122,114.617139 113.828615,113.072383 C115.383617,111.527627 117.891684,111.527627 119.446685,113.072383 C121.001687,114.617139 121.001687,117.133596 119.446685,118.678352 C118.671693,119.448238 117.665958,119.824461 116.63765,119.824461 C115.609343,119.824461 114.606116,119.448238 113.828615,118.678352 M125.892417,136.816774 C125.892417,134.621726 127.673145,132.852731 129.857671,132.852731 C132.062262,132.852731 133.842989,134.621726 133.842989,136.816774 C133.842989,138.981924 132.062262,140.75341 129.857671,140.75341 C127.673145,140.75341 125.892417,138.981924 125.892417,136.816774 M125.892417,163.177283 C125.892417,161.009642 127.673145,159.213241 129.857671,159.213241 C132.062262,159.213241 133.842989,161.009642 133.842989,163.177283 C133.842989,165.36984 132.062262,167.138834 129.857671,167.138834 C127.673145,167.138834 125.892417,165.36984 125.892417,163.177283 M125.892417,189.562708 C125.892417,187.370151 127.673145,185.601157 129.857671,185.601157 C132.062262,185.601157 133.842989,187.370151 133.842989,189.562708 C133.842989,191.755265 132.062262,193.524259 129.857671,193.524259 C127.673145,193.524259 125.892417,191.755265 125.892417,189.562708 M125.892417,215.948133 C125.892417,213.755576 127.673145,211.986582 129.857671,211.986582 C132.062262,211.986582 133.842989,213.755576 133.842989,215.948133 C133.842989,218.140689 132.062262,219.909684 129.857671,219.909684 C127.673145,219.909684 125.892417,218.140689 125.892417,215.948133 M125.892417,242.333557 C125.892417,240.141001 127.673145,238.372006 129.857671,238.372006 C132.062262,238.372006 133.842989,240.141001 133.842989,242.333557 C133.842989,244.501199 132.062262,246.270193 129.857671,246.270193 C127.673145,246.270193 125.892417,244.501199 125.892417,242.333557 M125.892417,268.694067 C125.892417,266.50151 127.673145,264.732516 129.857671,264.732516 C132.062262,264.732516 133.842989,266.50151 133.842989,268.694067 C133.842989,270.886623 132.062262,272.655618 129.857671,272.655618 C127.673145,272.655618 125.892417,270.886623 125.892417,268.694067" id="Fill-75" fill="#0086B4" mask="url(#mask-10)"></path>
                    </g>
                    <g id="Group-140" opacity="0.300000012" stroke-width="1" fill="none" transform="translate(191.780429, 1261.040909)">
                        <polygon id="Fill-120" fill="#0098CC" points="30.0829252 23.6546877 0 0 0 47.3093754"></polygon>
                    </g>
                    <polygon id="Fill-141" fill="#FFFFFF" opacity="0.300000012" points="1004.93224 1785.50589 1060.23511 1785.50589 1060.23511 1774.46163 1004.93224 1774.46163"></polygon>
                    <polygon id="Fill-143" fill="#FFFFFF" opacity="0.300000012" points="1003.35216 1678.21882 1027.05339 1678.21882 1027.05339 1667.17456 1003.35216 1667.17456"></polygon>
                    <polygon id="Fill-145" fill="#FFFFFF" opacity="0.300000012" points="1064.97536 1720.8181 1117.11807 1720.8181 1117.11807 1709.77384 1064.97536 1709.77384"></polygon>
                    <polygon id="Fill-147" fill="#FFFFFF" opacity="0.300000012" points="1066.55544 1764.99512 1118.69815 1764.99512 1118.69815 1753.95087 1066.55544 1753.95087"></polygon>
                    <polygon id="Fill-149" fill="#FFFFFF" opacity="0.300000012" points="1131.33881 1720.8181 1215.08316 1720.8181 1215.08316 1709.77384 1131.33881 1709.77384"></polygon>
                    <polygon id="Fill-151" fill="#FFFFFF" opacity="0.300000012" points="1129.75873 1764.99512 1166.10062 1764.99512 1166.10062 1753.95087 1129.75873 1753.95087"></polygon>
                    <polygon id="Fill-153" fill="#FFFFFF" opacity="0.300000012" points="1109.21766 1807.5944 1151.87988 1807.5944 1151.87988 1796.55014 1109.21766 1796.55014"></polygon>
                    <polygon id="Fill-155" fill="#FFFFFF" opacity="0.300000012" points="1227.72382 1720.8181 1273.5462 1720.8181 1273.5462 1709.77384 1227.72382 1709.77384"></polygon>
                    <polygon id="Fill-157" fill="#FFFFFF" opacity="0.300000012" points="1283.02669 1720.8181 1305.14784 1720.8181 1305.14784 1709.77384 1283.02669 1709.77384"></polygon>
                    <polygon id="Fill-159" fill="#FFFFFF" opacity="0.300000012" points="1038.11396 1678.21882 1174.00103 1678.21882 1174.00103 1667.17456 1038.11396 1667.17456"></polygon>
                    <polygon id="Fill-161" fill="#FFFFFF" opacity="0.300000012" points="1038.11396 1700.30733 1057.07495 1700.30733 1057.07495 1689.26308 1038.11396 1689.26308"></polygon>
                    <polygon id="Fill-163" fill="#FFFFFF" opacity="0.300000012" points="1034.9538 1742.90661 1083.93634 1742.90661 1083.93634 1731.86235 1034.9538 1731.86235"></polygon>
                    <polygon id="Fill-165" fill="#FFFFFF" opacity="0.300000012" points="1034.9538 1807.5944 1083.93634 1807.5944 1083.93634 1796.55014 1034.9538 1796.55014"></polygon>
                    <polygon id="Fill-167" fill="#FFFFFF" opacity="0.300000012" points="1064.97536 1700.30733 1091.83676 1700.30733 1091.83676 1689.26308 1064.97536 1689.26308"></polygon>
                    <polygon id="Fill-169" fill="#FFFFFF" opacity="0.300000012" points="1099.73717 1700.30733 1125.01848 1700.30733 1125.01848 1689.26308 1099.73717 1689.26308"></polygon>
                    <polygon id="Fill-171" fill="#FFFFFF" opacity="0.300000012" points="1131.33881 1700.30733 1215.08316 1700.30733 1215.08316 1689.26308 1131.33881 1689.26308"></polygon>
                    <polygon id="Fill-173" fill="#FFFFFF" opacity="0.300000012" points="1180.32136 1678.21882 1205.60267 1678.21882 1205.60267 1667.17456 1180.32136 1667.17456"></polygon>
                    <polygon id="Fill-175" fill="#FFFFFF" opacity="0.300000012" points="1227.72382 1678.21882 1273.5462 1678.21882 1273.5462 1667.17456 1227.72382 1667.17456"></polygon>
                </g>
            </g>
            <g id="pattern" opacity="0.399118823" mask="url(#mask-2)">
                <g transform="translate(3762.500000, 1324.418726) scale(-1, 1) translate(-3762.500000, -1324.418726) translate(2993.000000, 387.508202)">
                    <path d="M1539,902.700318 C1539,897.474129 1534.75646,893.23262 1529.51951,893.23262 C1524.28255,893.23262 1520.03901,897.474129 1520.03901,902.700318 C1520.03901,907.926506 1524.28255,912.165631 1529.51951,912.165631 C1534.75646,912.165631 1539,907.926506 1539,902.700318" id="Fill-7" fill-opacity="0.3" fill="#FFFFFF"></path>
                    <path d="M1520.03901,152.642541 C1520.03901,141.315072 1510.8442,132.131779 1499.49927,132.131779 C1488.15433,132.131779 1478.95688,141.315072 1478.95688,152.642541 C1478.95688,163.97001 1488.15433,173.153304 1499.49927,173.153304 C1510.8442,173.153304 1520.03901,163.97001 1520.03901,152.642541" id="Fill-11" fill="#FFFFFF" opacity="0.300000012"></path>
                    <g id="Group-16" opacity="0.300000012" stroke-width="1" fill="none" transform="translate(1320.948665, 348.774850)">
                        <g id="Group-3" transform="translate(72.146570, 0.000000)">
                            <mask id="mask-12" fill="white">
                                <use xlink:href="#path-11"></use>
                            </mask>
                            <g id="Clip-2"></g>
                            <polygon id="Fill-1" fill="#FFFFFF" mask="url(#mask-12)" points="0 24.755337 30.6146556 0 30.6146556 49.510674"></polygon>
                        </g>
                        <g id="Group-6" transform="translate(72.146570, 59.578408)">
                            <mask id="mask-14" fill="white">
                                <use xlink:href="#path-13"></use>
                            </mask>
                            <g id="Clip-5"></g>
                            <polygon id="Fill-4" fill="#FFFFFF" mask="url(#mask-14)" points="0 24.755337 30.6146556 0 30.6146556 49.510674"></polygon>
                        </g>
                        <g id="Group-9" transform="translate(72.146570, 121.291791)">
                            <mask id="mask-16" fill="white">
                                <use xlink:href="#path-15"></use>
                            </mask>
                            <g id="Clip-8"></g>
                            <polygon id="Fill-7" fill="#FFFFFF" mask="url(#mask-16)" points="0 24.4789616 30.6146556 0 30.6146556 48.9579232"></polygon>
                        </g>
                        <polygon id="Fill-10" fill="#FFFFFF" points="35.7994729 55.5592128 66.9294493 31.0389539 66.9294493 80.0794717"></polygon>
                        <polygon id="Fill-12" fill="#FFFFFF" points="35.7994729 115.673396 66.9294493 91.153137 66.9294493 140.193655"></polygon>
                        <polygon id="Fill-14" fill="#FFFFFF" points="0 85.6163043 31.1299764 61.0960454 31.1299764 110.136563"></polygon>
                    </g>
                    <path d="M798.381081,218.564097 C798.381081,195.037658 779.279186,175.964235 755.717628,175.964235 C732.156069,175.964235 713.056646,195.037658 713.056646,218.564097 C713.056646,242.090536 732.156069,261.161491 755.717628,261.161491 C779.279186,261.161491 798.381081,242.090536 798.381081,218.564097" id="Fill-22" fill="#FFFFFF" opacity="0.300000012"></path>
                    <path d="M1084.72759,556.212495 C1081.55506,556.212495 1078.96968,558.791882 1078.96968,561.960016 C1078.96968,565.130563 1081.55506,567.707537 1084.72759,567.707537 C1087.90012,567.707537 1090.48309,565.130563 1090.48309,561.960016 C1090.48309,558.791882 1087.90012,556.212495 1084.72759,556.212495 M1084.72759,575.370899 C1077.3218,575.370899 1071.29569,569.355546 1071.29569,561.960016 C1071.29569,554.564486 1077.3218,548.549133 1084.72759,548.549133 C1092.13097,548.549133 1098.15708,554.564486 1098.15708,561.960016 C1098.15708,569.355546 1092.13097,575.370899 1084.72759,575.370899" id="Fill-36" fill="#0086B4"></path>
                    <path d="M1255.37405,1437.77209 C1252.20152,1437.77209 1249.61855,1440.34907 1249.61855,1443.51961 C1249.61855,1446.68775 1252.20152,1449.26955 1255.37405,1449.26955 C1258.54658,1449.26955 1261.13196,1446.68775 1261.13196,1443.51961 C1261.13196,1440.34907 1258.54658,1437.77209 1255.37405,1437.77209 M1255.37405,1456.9305 C1247.97067,1456.9305 1241.94456,1450.91515 1241.94456,1443.51961 C1241.94456,1436.12408 1247.97067,1430.10873 1255.37405,1430.10873 C1262.77984,1430.10873 1268.80595,1436.12408 1268.80595,1443.51961 C1268.80595,1450.91515 1262.77984,1456.9305 1255.37405,1456.9305" id="Fill-38" fill="#0086B4"></path>
                    <path d="M775.820329,218.010306 C775.820329,205.376411 765.562268,195.132917 752.910407,195.132917 C740.256007,195.132917 729.997947,205.376411 729.997947,218.010306 C729.997947,230.644202 740.256007,240.887695 752.910407,240.887695 C765.562268,240.887695 775.820329,230.644202 775.820329,218.010306" id="Fill-51" fill="#FFFFFF"></path>
                    <path d="M752.909138,199.767905 C742.83483,199.767905 734.639782,207.950862 734.639782,218.010306 C734.639782,228.069751 742.83483,236.255161 752.909138,236.255161 C762.983445,236.255161 771.178493,228.069751 771.178493,218.010306 C771.178493,207.950862 762.983445,199.767905 752.909138,199.767905 M752.909138,244.043197 C738.530956,244.043197 726.837782,232.367275 726.837782,218.010306 C726.837782,203.65579 738.530956,191.977415 752.909138,191.977415 C767.287319,191.977415 778.980493,203.65579 778.980493,218.010306 C778.980493,232.367275 767.287319,244.043197 752.909138,244.043197" id="Fill-53" fill="#0086B4"></path>
                    <path d="M1246.13043,160.477338 C1243.94677,160.099502 1242.51861,158.00881 1242.89259,155.84255 C1243.26908,153.676291 1245.32975,152.215325 1247.51341,152.593161 C1249.66946,152.970997 1251.12523,155.061689 1250.74874,157.227949 C1250.39734,159.167507 1248.71568,160.527716 1246.81062,160.527716 C1246.58473,160.527716 1246.35632,160.502527 1246.13043,160.477338 L1246.13043,160.477338 Z M1217.06521,163.147378 C1215.96083,161.23301 1216.61341,158.789671 1218.52098,157.681352 C1220.43105,156.598222 1222.86319,157.253138 1223.96757,159.167507 C1225.07195,161.056686 1224.42187,163.525214 1222.5118,164.608344 L1222.5118,164.633533 C1221.88431,164.98618 1221.20662,165.162503 1220.53145,165.162503 C1219.14846,165.162503 1217.8207,164.432021 1217.06521,163.147378 L1217.06521,163.147378 Z M1266.86513,172.51771 C1265.45704,170.830043 1265.68294,168.311136 1267.36461,166.87536 C1269.04627,165.464772 1271.55622,165.691474 1272.96179,167.379141 L1272.98689,167.379141 C1274.39498,169.066808 1274.16657,171.585714 1272.4849,173.021491 C1271.73192,173.651218 1270.82834,173.953486 1269.92475,173.953486 C1268.79528,173.953486 1267.6658,173.449705 1266.86513,172.51771 L1266.86513,172.51771 Z M1201.95531,185.41451 C1199.89715,184.633649 1198.84297,182.341444 1199.59595,180.275941 C1200.35145,178.210438 1202.63299,177.127308 1204.69115,177.88298 C1206.77441,178.638652 1207.82859,180.956046 1207.0756,183.021549 C1206.47322,184.633649 1204.94215,185.641212 1203.33578,185.641212 C1202.8865,185.641212 1202.4071,185.565644 1201.95531,185.41451 L1201.95531,185.41451 Z M1279.01328,199.268494 C1276.82712,199.268494 1275.04756,197.454882 1275.04756,195.263433 L1275.04756,195.187866 L1275.04756,195.112299 C1275.04756,192.895662 1276.82712,191.132427 1279.03587,191.132427 C1281.24463,191.132427 1283.02669,192.895662 1283.02669,195.112299 L1283.02669,195.339001 C1282.979,197.530449 1281.21953,199.268494 1279.03587,199.268494 L1279.01328,199.268494 Z M1199.52316,209.797523 C1198.76767,207.73202 1199.84946,205.439815 1201.93272,204.684143 C1203.98837,203.928471 1206.27242,205.011601 1207.0254,207.077104 C1207.7809,209.167796 1206.69911,211.460001 1204.64346,212.215673 C1204.18916,212.366807 1203.73737,212.442374 1203.28809,212.442374 C1201.65411,212.442374 1200.12304,211.434812 1199.52316,209.797523 L1199.52316,209.797523 Z M1267.23911,223.449995 C1265.55744,222.039407 1265.35665,219.520501 1266.78732,217.832834 C1268.19289,216.145167 1270.70284,215.918465 1272.38451,217.354242 C1274.06617,218.790018 1274.29458,221.308924 1272.8614,222.996592 C1272.05821,223.928587 1270.95634,224.407179 1269.80177,224.407179 C1268.89567,224.407179 1267.99209,224.10491 1267.23911,223.449995 L1267.23911,223.449995 Z M1218.39548,232.467679 C1216.48792,231.35936 1215.83784,228.890832 1216.93971,226.976464 C1218.0466,225.087284 1220.50384,224.432368 1222.3863,225.540687 C1224.29637,226.649006 1224.94896,229.092345 1223.84207,231.006714 C1223.08909,232.291356 1221.75881,232.99665 1220.37834,232.99665 C1219.70316,232.99665 1219.02297,232.820326 1218.39548,232.467679 L1218.39548,232.467679 Z M1242.74199,234.407237 C1242.3655,232.240978 1243.82127,230.150285 1245.97983,229.797639 C1248.166,229.419803 1250.22165,230.880768 1250.59814,233.047028 C1250.94953,235.238476 1249.49376,237.303979 1247.3352,237.681815 C1247.11182,237.707004 1246.88592,237.732193 1246.65752,237.732193 C1244.74995,237.732193 1243.06829,236.346795 1242.74199,234.407237 L1242.74199,234.407237 Z" id="Fill-55" fill="#0086B4"></path>
                    <path d="M487.832022,82.0764155 C486.27639,80.5115558 486.27639,77.9623488 487.832022,76.3974891 C489.387654,74.8326293 491.896739,74.8326293 493.449862,76.3974891 C495.005494,77.9623488 495.005494,80.5115558 493.449862,82.0764155 C492.674555,82.8588454 491.668412,83.2374405 490.642196,83.2374405 C489.613472,83.2374405 488.609838,82.8588454 487.832022,82.0764155 M506.597464,100.955691 C505.041832,99.3908312 505.041832,96.8668639 506.597464,95.3020042 C508.155605,93.7371445 510.687271,93.7371445 512.242904,95.3020042 C513.801045,96.8668639 513.801045,99.3908312 512.242904,100.955691 C511.467597,101.738121 510.438872,102.141956 509.432729,102.141956 C508.406514,102.141956 507.377789,101.738121 506.597464,100.955691 M525.393015,119.860206 C523.837382,118.295346 523.837382,115.746139 525.393015,114.18128 C526.948647,112.61642 529.457731,112.61642 531.013364,114.18128 C532.568996,115.746139 532.568996,118.295346 531.013364,119.860206 C530.233038,120.642636 529.231914,121.021231 528.203189,121.021231 C527.197046,121.021231 526.168322,120.642636 525.393015,119.860206 M544.186057,138.764721 C542.605333,137.199862 542.605333,134.650655 544.186057,133.085795 C545.741689,131.520935 548.250773,131.520935 549.806405,133.085795 C551.359529,134.650655 551.359529,137.199862 549.806405,138.764721 C549.028589,139.547151 547.997356,139.925746 546.996231,139.925746 C545.967506,139.925746 544.963873,139.547151 544.186057,138.764721 M562.951498,157.643997 C561.395866,156.079137 561.395866,153.55517 562.951498,151.99031 C564.50964,150.42545 567.041306,150.42545 568.596938,151.99031 C570.15508,153.55517 570.15508,156.079137 568.596938,157.643997 C567.821631,158.426427 566.792907,158.830261 565.764182,158.830261 C564.760548,158.830261 563.731824,158.426427 562.951498,157.643997 M581.747049,176.548512 C580.191417,174.983652 580.191417,172.434445 581.747049,170.869585 C583.302682,169.304726 585.811766,169.304726 587.367398,170.869585 C588.923031,172.434445 588.923031,174.983652 587.367398,176.548512 C586.587073,177.330942 585.585948,177.709537 584.557224,177.709537 C583.528499,177.709537 582.522356,177.330942 581.747049,176.548512 M600.515,195.427787 C598.959368,193.862928 598.959368,191.33896 600.515,189.774101 C602.068123,188.209241 604.604808,188.209241 606.16044,189.774101 C607.713563,191.33896 607.713563,193.862928 606.16044,195.427787 C605.382624,196.210217 604.35139,196.614052 603.350266,196.614052 C602.321541,196.614052 601.292816,196.210217 600.515,195.427787 M619.305533,214.332302 C617.749901,212.767443 617.749901,210.243475 619.305533,208.653376 C620.863674,207.088516 623.372759,207.088516 624.928391,208.653376 C626.509114,210.243475 626.509114,212.767443 624.928391,214.332302 C624.150575,215.114732 623.146941,215.518567 622.118217,215.518567 C621.086983,215.518567 620.085858,215.114732 619.305533,214.332302 M642.040346,217.941576 C642.040346,215.720484 643.821796,213.928468 646.02979,213.928468 C648.237785,213.928468 650.019235,215.720484 650.019235,217.941576 C650.019235,220.162667 648.237785,221.954684 646.02979,221.954684 C643.821796,221.954684 642.040346,220.162667 642.040346,217.941576 M668.61155,217.941576 C668.61155,215.720484 670.392999,213.928468 672.600994,213.928468 C674.783897,213.928468 676.587929,215.720484 676.587929,217.941576 C676.587929,220.162667 674.783897,221.954684 672.600994,221.954684 C670.392999,221.954684 668.61155,220.162667 668.61155,217.941576 M695.182753,217.941576 C695.182753,215.720484 696.964203,213.928468 699.169688,213.928468 C701.3551,213.928468 703.13655,215.720484 703.13655,217.941576 C703.13655,220.162667 701.3551,221.954684 699.169688,221.954684 C696.964203,221.954684 695.182753,220.162667 695.182753,217.941576" id="Fill-65" fill="#0086B4"></path>
                    <path d="M1028.65336,1468.37794 C1019.39861,1468.37794 1014.58763,1462.88678 1010.72198,1458.47087 C1007.1888,1454.4355 1004.39749,1451.24552 998.64863,1451.24552 C992.894808,1451.24552 990.101016,1454.4355 986.562874,1458.47342 C982.694738,1462.88678 977.881278,1468.37794 968.62157,1468.37794 C959.356899,1468.37794 954.540958,1462.88678 950.67034,1458.47342 C947.129718,1454.4355 944.333445,1451.24552 938.569698,1451.24552 C932.810914,1451.24552 930.01216,1454.4355 926.471537,1458.47342 C925.015093,1460.13099 922.528966,1460.27146 920.906284,1458.76458 C919.293526,1457.26281 919.164506,1454.70112 920.623431,1453.0359 C924.494049,1448.62509 929.307509,1443.13393 938.569698,1443.13393 C947.834369,1443.13393 952.65031,1448.62764 956.520928,1453.03845 C960.06155,1457.07637 962.857823,1460.26635 968.62157,1460.26635 C974.377873,1460.26635 977.171665,1457.07637 980.712287,1453.03845 C984.577942,1448.62764 989.391403,1443.13393 998.64863,1443.13393 C1007.90338,1443.13393 1012.71187,1448.62764 1016.57753,1453.041 C1020.11319,1457.07637 1022.9045,1460.26635 1028.65336,1460.26635 C1034.4047,1460.26635 1037.19849,1457.07637 1040.73415,1453.041 C1044.60229,1448.62764 1049.41327,1443.13393 1058.67298,1443.13393 C1067.92524,1443.13393 1072.73622,1448.62764 1076.59939,1453.03845 C1078.05584,1454.70368 1077.93426,1457.27303 1076.31902,1458.7748 C1074.7013,1460.27401 1072.22014,1460.14376 1070.76121,1458.48619 L1070.74881,1458.47087 C1067.21066,1454.43295 1064.41935,1451.24552 1058.67298,1451.24552 C1052.91915,1451.24552 1050.12288,1454.4355 1046.5897,1458.47342 C1042.72157,1462.88678 1037.9081,1468.37794 1028.65336,1468.37794" id="Fill-71" fill="#0086B4"></path>
                    <path d="M807.439129,460.195079 C798.187075,460.195079 793.376205,454.703918 789.510638,450.288003 C785.977539,446.252639 783.186292,443.062657 777.437563,443.062657 C771.683872,443.062657 768.887663,446.252639 765.34712,450.290557 C761.481553,454.703918 756.668202,460.195079 747.408705,460.195079 C738.144245,460.195079 733.330894,454.703918 729.460364,450.293111 C725.919822,446.252639 723.123613,443.062657 717.359997,443.062657 C711.596382,443.062657 708.800172,446.252639 705.25963,450.290557 C703.805701,451.950676 701.317149,452.091147 699.696985,450.584271 C698.081783,449.082502 697.952765,446.518258 699.411657,444.855585 C703.282187,440.444778 708.095538,434.951064 717.359997,434.951064 C726.624457,434.951064 731.440289,440.444778 735.310819,444.855585 C738.851361,448.893504 741.64757,452.083485 747.408705,452.083485 C753.162396,452.083485 755.958605,448.893504 759.499147,444.855585 C763.364715,440.444778 768.178065,434.951064 777.437563,434.951064 C786.692098,434.951064 791.500487,440.444778 795.366054,444.858139 C798.901634,448.896058 801.692882,452.083485 807.439129,452.083485 C813.190339,452.083485 815.986549,448.893504 819.522129,444.858139 C823.390177,440.444778 828.201047,434.951064 837.458063,434.951064 C846.712599,434.951064 851.523468,440.442224 855.389036,444.855585 C856.845447,446.520812 856.721391,449.090164 855.106189,450.591933 C853.498431,452.091147 851.01236,451.968554 849.548506,450.300773 L849.5361,450.288003 C846.000521,446.252639 843.206792,443.062657 837.458063,443.062657 C831.704372,443.062657 828.910644,446.252639 825.375064,450.290557 C821.509497,454.703918 816.696146,460.195079 807.439129,460.195079" id="Fill-73" fill="#0086B4"></path>
                    <polygon id="Fill-143" fill="#FFFFFF" opacity="0.300000012" points="1003.35216 1678.21882 1027.05339 1678.21882 1027.05339 1667.17456 1003.35216 1667.17456"></polygon>
                    <polygon id="Fill-145" fill="#FFFFFF" opacity="0.300000012" points="1064.97536 1720.8181 1117.11807 1720.8181 1117.11807 1709.77384 1064.97536 1709.77384"></polygon>
                    <polygon id="Fill-147" fill="#FFFFFF" opacity="0.300000012" points="1066.55544 1764.99512 1118.69815 1764.99512 1118.69815 1753.95087 1066.55544 1753.95087"></polygon>
                    <polygon id="Fill-149" fill="#FFFFFF" opacity="0.300000012" points="1131.33881 1720.8181 1215.08316 1720.8181 1215.08316 1709.77384 1131.33881 1709.77384"></polygon>
                    <polygon id="Fill-151" fill="#FFFFFF" opacity="0.300000012" points="1129.75873 1764.99512 1166.10062 1764.99512 1166.10062 1753.95087 1129.75873 1753.95087"></polygon>
                    <polygon id="Fill-155" fill="#FFFFFF" opacity="0.300000012" points="1227.72382 1720.8181 1273.5462 1720.8181 1273.5462 1709.77384 1227.72382 1709.77384"></polygon>
                    <polygon id="Fill-157" fill="#FFFFFF" opacity="0.300000012" points="1283.02669 1720.8181 1305.14784 1720.8181 1305.14784 1709.77384 1283.02669 1709.77384"></polygon>
                    <polygon id="Fill-159" fill="#FFFFFF" opacity="0.300000012" points="1038.11396 1678.21882 1174.00103 1678.21882 1174.00103 1667.17456 1038.11396 1667.17456"></polygon>
                    <polygon id="Fill-161" fill="#FFFFFF" opacity="0.300000012" points="1038.11396 1700.30733 1057.07495 1700.30733 1057.07495 1689.26308 1038.11396 1689.26308"></polygon>
                    <polygon id="Fill-163" fill="#FFFFFF" opacity="0.300000012" points="1034.9538 1742.90661 1083.93634 1742.90661 1083.93634 1731.86235 1034.9538 1731.86235"></polygon>
                    <polygon id="Fill-167" fill="#FFFFFF" opacity="0.300000012" points="1064.97536 1700.30733 1091.83676 1700.30733 1091.83676 1689.26308 1064.97536 1689.26308"></polygon>
                    <polygon id="Fill-169" fill="#FFFFFF" opacity="0.300000012" points="1099.73717 1700.30733 1125.01848 1700.30733 1125.01848 1689.26308 1099.73717 1689.26308"></polygon>
                    <polygon id="Fill-171" fill="#FFFFFF" opacity="0.300000012" points="1131.33881 1700.30733 1215.08316 1700.30733 1215.08316 1689.26308 1131.33881 1689.26308"></polygon>
                    <polygon id="Fill-173" fill="#FFFFFF" opacity="0.300000012" points="1180.32136 1678.21882 1205.60267 1678.21882 1205.60267 1667.17456 1180.32136 1667.17456"></polygon>
                    <polygon id="Fill-175" fill="#FFFFFF" opacity="0.300000012" points="1227.72382 1678.21882 1273.5462 1678.21882 1273.5462 1667.17456 1227.72382 1667.17456"></polygon>
                </g>
            </g>
        </g>
        <g id="Group-140" opacity="0.15" transform="translate(3545.870084, 89.041223)">
            <polygon id="Fill-120" fill="#0098CC" points="30.0809233 23.626414 0 0 0 47.252828"></polygon>
            <polygon id="Fill-122" fill="#0098CC" points="30.0809233 81.9236689 0 58.2972549 0 105.550083"></polygon>
            <polygon id="Fill-124" fill="#0098CC" points="30.0809233 140.220675 0 116.594261 0 163.844597"></polygon>
            <polygon id="Fill-126" fill="#0098CC" points="30.0809233 198.515438 0 174.889024 0 222.141852"></polygon>
            <polygon id="Fill-128" fill="#0098CC" points="64.945494 52.7737959 34.8645708 29.149873 34.8645708 76.4002099"></polygon>
            <polygon id="Fill-130" fill="#0098CC" points="64.945494 111.070802 34.8645708 87.4443876 34.8645708 134.697216"></polygon>
            <polygon id="Fill-132" fill="#0098CC" points="64.945494 169.368056 34.8645708 145.741642 34.8645708 192.99447"></polygon>
            <polygon id="Fill-134" fill="#0098CC" points="99.8100648 81.9236689 69.7291415 58.2972549 69.7291415 105.550083"></polygon>
            <polygon id="Fill-136" fill="#0098CC" points="99.8100648 140.220675 69.7291415 116.594261 69.7291415 163.844597"></polygon>
            <polygon id="Fill-138" fill="#0099CC" points="134.657836 111.070802 104.574442 87.4443876 104.574442 134.697216"></polygon>
        </g>
        <g id="Group-140" opacity="0.15" transform="translate(2837.870084, 2086.041223)" fill="#0098CC">
            <polygon id="Fill-120" points="30.0809233 23.626414 0 0 0 47.252828"></polygon>
            <polygon id="Fill-122" points="30.0809233 81.9236689 0 58.2972549 0 105.550083"></polygon>
            <polygon id="Fill-128" points="64.945494 52.7737959 34.8645708 29.149873 34.8645708 76.4002099"></polygon>
            <polygon id="Fill-134" points="99.8100648 81.9236689 69.7291415 58.2972549 69.7291415 105.550083"></polygon>
        </g>
    </g>
</svg>