<?xml version="1.0" encoding="UTF-8"?>
<svg width="68px" height="38px" viewBox="0 0 68 38" version="1.1" xmlns="http://www.w3.org/2000/svg" xmlns:xlink="http://www.w3.org/1999/xlink">
    <title>UB logo</title>
    <g id="UB-logo" stroke="none" stroke-width="1" fill="none" fill-rule="evenodd">
        <g id="Logo" fill="#0099CC" transform="translate(0.000000, -0.000229)">
            <path d="M37.3958367,33.247253 C35.9539592,33.247253 34.780381,32.0875663 34.780381,30.660506 C34.780381,29.2348193 35.9539592,28.0719277 37.3958367,28.0719277 C38.8363265,28.0719277 40.0094422,29.2348193 40.0094422,30.660506 C40.0094422,32.0875663 38.8363265,33.247253 37.3958367,33.247253 M37.3958367,26.3971807 C35.0209252,26.3971807 33.0891701,28.3104578 33.0891701,30.660506 C33.0891701,33.0087229 35.0209252,34.922 37.3958367,34.922 C39.7693605,34.922 41.7011156,33.0087229 41.7011156,30.660506 C41.7011156,28.3104578 39.7693605,26.3971807 37.3958367,26.3971807 M20.851483,2.60831938e-16 C16.7076463,2.60831938e-16 13.3372517,3.33621687 13.3372517,7.43701205 L13.3372517,14.2861687 C13.3372517,17.4635181 10.7245714,20.0498072 7.51469388,20.0498072 C4.3025034,20.0498072 1.69121088,17.4635181 1.69121088,14.2861687 L1.69121088,10.8615904 C1.69121088,10.3978072 1.31327891,10.0246747 0.846068027,10.0246747 C0.378394558,10.0246747 0,10.3978072 0,10.8615904 L0,14.2861687 C0,18.3874217 3.36993197,21.7236386 7.51469388,21.7236386 C11.6585306,21.7236386 15.0289252,18.3874217 15.0289252,14.2861687 L15.0289252,7.43701205 C15.0289252,4.26012048 17.6411429,1.67566265 20.851483,1.67566265 C24.0622857,1.67566265 26.6735782,4.26012048 26.6735782,7.43701205 L26.6735782,10.8615904 C26.6735782,11.3230843 27.052898,11.698506 27.5201088,11.698506 C27.9877823,11.698506 28.3657143,11.3230843 28.3657143,10.8615904 L28.3657143,7.43701205 C28.3657143,3.33621687 24.9948571,2.60831938e-16 20.851483,2.60831938e-16 M24.3134694,11.698506 C24.7811429,11.698506 25.1590748,11.3230843 25.1590748,10.8615904 L25.1590748,7.43701205 C25.1590748,5.08696386 23.2273197,3.17460241 20.8533333,3.17460241 C18.4779592,3.17460241 16.5471293,5.08696386 16.5471293,7.43701205 L16.5471293,10.8615904 C16.5471293,11.3230843 16.9250612,11.698506 17.3927347,11.698506 C17.8599456,11.698506 18.2392653,11.3230843 18.2392653,10.8615904 L18.2392653,7.43701205 C18.2392653,6.01086747 19.4114558,4.85026506 20.8533333,4.85026506 C22.2933605,4.85026506 23.4669388,6.01086747 23.4669388,7.43701205 L23.4669388,10.8615904 C23.4669388,11.3230843 23.8448707,11.698506 24.3134694,11.698506 M7.51330612,18.5485783 C9.88682993,18.5485783 11.8190476,16.6362169 11.8190476,14.2861687 L11.8190476,10.8615904 C11.8190476,10.3978072 11.4411156,10.0246747 10.9734422,10.0246747 C10.5048435,10.0246747 10.1269116,10.3978072 10.1269116,10.8615904 L10.1269116,14.2861687 C10.1269116,15.7123133 8.95472109,16.8729157 7.51330612,16.8729157 C6.07281633,16.8729157 4.8992381,15.7123133 4.8992381,14.2861687 L4.8992381,10.8615904 C4.8992381,10.3978072 4.51991837,10.0246747 4.05317007,10.0246747 C3.58503401,10.0246747 3.20571429,10.3978072 3.20571429,10.8615904 L3.20571429,14.2861687 C3.20571429,16.6362169 5.13793197,18.5485783 7.51330612,18.5485783 M37.394449,16.8729157 C35.9525714,16.8729157 34.780381,15.7123133 34.780381,14.2861687 C34.780381,12.8600241 35.9525714,11.698506 37.394449,11.698506 C38.8344762,11.698506 40.0080544,12.8600241 40.0080544,14.2861687 C40.0080544,15.7123133 38.8344762,16.8729157 37.394449,16.8729157 M37.3958367,21.7236386 C41.5396735,21.7236386 44.910068,18.3874217 44.910068,14.2861687 L44.910068,4.22120482 C44.910068,3.75696386 44.5312109,3.38291566 44.0649252,3.38291566 C43.5958639,3.38291566 43.2183946,3.75696386 43.2183946,4.22120482 L43.2183946,14.2861687 C43.2183946,17.4635181 40.6066395,20.0498072 37.3958367,20.0498072 C34.185034,20.0498072 31.5732789,17.4635181 31.5732789,14.2861687 C31.5732789,11.1083614 34.185034,8.52390361 37.3958367,8.52390361 C38.3066667,8.52390361 39.2008435,8.73679518 40.0080544,9.13739759 L40.0080544,10.9073735 C39.2813333,10.3552289 38.3769796,10.0246747 37.394449,10.0246747 C35.0190748,10.0246747 33.0868571,11.9352048 33.0868571,14.2861687 C33.0868571,16.6362169 35.0190748,18.5485783 37.394449,18.5485783 C39.7684354,18.5485783 41.7001905,16.6362169 41.7001905,14.2861687 L41.7001905,8.61592771 L41.7001905,8.59898795 L41.7001905,4.22120482 C41.7001905,3.75696386 41.3222585,3.38291566 40.854585,3.38291566 C40.3859864,3.38291566 40.0080544,3.75696386 40.0080544,4.22120482 L40.0080544,7.31522892 C39.1749388,7.00939759 38.2923265,6.84824096 37.3958367,6.84824096 C33.2510748,6.84824096 29.8802177,10.184 29.8802177,14.2861687 C29.8802177,18.3874217 33.2510748,21.7236386 37.3958367,21.7236386 M67.2769796,19.7989157 C66.8097687,19.7989157 66.4322993,20.1729639 66.4322993,20.6349157 C66.4322993,23.8136386 63.8200816,26.3971807 60.6092789,26.3971807 L52.8424762,26.3971807 L52.8424762,37.2610602 C52.8424762,37.7234699 53.2213333,38.0975181 53.6880816,38.0975181 C54.1566803,38.0975181 54.5355374,37.7234699 54.5355374,37.2610602 L54.5355374,28.0719277 L60.6092789,28.0719277 C64.7526531,28.0719277 68.1244354,24.738 68.1244354,20.6349157 C68.1244354,20.1729639 67.7446531,19.7989157 67.2769796,19.7989157 M53.9392653,16.8729157 C52.4983129,16.8729157 51.3256599,15.7123133 51.3256599,14.2861687 C51.3256599,12.8600241 52.4983129,11.698506 53.9392653,11.698506 C55.3802177,11.698506 56.5537959,12.8600241 56.5537959,14.2861687 C56.5537959,15.7123133 55.3802177,16.8729157 53.9392653,16.8729157 M53.9392653,21.7236386 C54.864898,21.7236386 55.7752653,21.5519518 56.6287347,21.2273494 C56.761034,21.5203614 57.0561633,21.7236386 57.3994014,21.7236386 C57.8666122,21.7236386 58.245932,21.3482169 58.245932,20.8858072 L58.245932,14.2861687 C58.245932,11.9352048 56.3146395,10.0246747 53.9392653,10.0246747 C51.5657415,10.0246747 49.6325986,11.9352048 49.6325986,14.2861687 C49.6325986,16.6362169 51.5657415,18.5485783 53.9392653,18.5485783 C54.9227211,18.5485783 55.828,18.2161928 56.5537959,17.6658795 L56.5537959,19.4340241 C55.746585,19.8369157 54.8524082,20.0498072 53.9392653,20.0498072 C50.7289252,20.0498072 48.1167075,17.4635181 48.1167075,14.2861687 C48.1167075,11.1083614 50.7289252,8.52390361 53.9392653,8.52390361 C57.150068,8.52390361 59.7613605,11.1083614 59.7613605,14.2861687 L59.7613605,20.8858072 C59.7613605,21.3482169 60.1397551,21.7236386 60.606966,21.7236386 C61.0755646,21.7236386 61.4544218,21.3482169 61.4544218,20.8858072 L61.4544218,14.2861687 C61.4544218,10.184 58.0826395,6.84824096 53.9392653,6.84824096 C49.7954286,6.84824096 46.4254966,10.184 46.4254966,14.2861687 C46.4254966,18.3874217 49.7954286,21.7236386 53.9392653,21.7236386 M37.3958367,36.4227711 C34.185034,36.4227711 31.5732789,33.8378554 31.5732789,30.660506 C31.5732789,27.4826988 34.185034,24.8973253 37.3958367,24.8973253 C40.6066395,24.8973253 43.2183946,27.4826988 43.2183946,30.660506 C43.2183946,33.8378554 40.6066395,36.4227711 37.3958367,36.4227711 M42.1373333,24.8973253 L60.6092789,24.8973253 C62.9823401,24.8973253 64.9150204,22.9858795 64.9150204,20.6349157 C64.9150204,20.1729639 64.5366259,19.7989157 64.069415,19.7989157 C63.6017415,19.7989157 63.2238095,20.1729639 63.2238095,20.6349157 C63.2238095,22.0619759 62.0502313,23.2225783 60.6092789,23.2225783 L37.3958367,23.2225783 C33.2510748,23.2225783 29.8802177,26.559253 29.8802177,30.660506 C29.8802177,34.761759 33.2510748,38.0975181 37.3958367,38.0975181 C41.5396735,38.0975181 44.910068,34.761759 44.910068,30.660506 C44.910068,29.7498795 44.7356735,28.8804578 44.4322177,28.0719277 L49.6325986,28.0719277 L49.6325986,37.2610602 C49.6325986,37.7234699 50.0114558,38.0975181 50.4800544,38.0975181 C50.9463401,38.0975181 51.3256599,37.7234699 51.3256599,37.2610602 L51.3256599,26.3971807 L43.5449796,26.3971807 C43.1457687,25.8358795 42.673932,25.3308916 42.1373333,24.8973253 M20.8533333,28.0719277 C22.2933605,28.0719277 23.4669388,29.2348193 23.4669388,30.660506 C23.4669388,32.0875663 22.2933605,33.247253 20.8533333,33.247253 C19.4114558,33.247253 18.2392653,32.0875663 18.2392653,30.660506 C18.2392653,29.2348193 19.4114558,28.0719277 20.8533333,28.0719277 M20.851483,23.2225783 C19.9549932,23.2225783 19.070068,23.3828193 18.2392653,23.6881928 L18.2392653,20.593253 C18.2392653,20.1308434 17.8599456,19.7563373 17.3927347,19.7563373 C16.9250612,19.7563373 16.5471293,20.1308434 16.5471293,20.593253 L16.5471293,24.974241 C16.5457415,24.9797349 16.5471293,24.9833976 16.5471293,24.9875181 L16.5471293,30.660506 C16.5471293,33.0087229 18.4779592,34.922 20.8533333,34.922 C23.2273197,34.922 25.1590748,33.0087229 25.1590748,30.660506 C25.1590748,28.3104578 23.2273197,26.3971807 20.8533333,26.3971807 C19.8689524,26.3971807 18.9645986,26.7300241 18.2392653,27.2821687 L18.2392653,25.5099036 C19.0469388,25.109759 19.9392653,24.8973253 20.851483,24.8973253 C24.0622857,24.8973253 26.6735782,27.4826988 26.6735782,30.660506 C26.6735782,33.8378554 24.0622857,36.4227711 20.851483,36.4227711 C17.6411429,36.4227711 15.0289252,33.8378554 15.0289252,30.660506 L15.0289252,20.593253 C15.0289252,20.1308434 14.6509932,19.7563373 14.1823946,19.7563373 C13.7151837,19.7563373 13.3372517,20.1308434 13.3372517,20.593253 L13.3372517,30.660506 C13.3372517,34.761759 16.7076463,38.0975181 20.851483,38.0975181 C24.9948571,38.0975181 28.3657143,34.761759 28.3657143,30.660506 C28.3657143,26.559253 24.9948571,23.2225783 20.851483,23.2225783" id="Fill-1"></path>
        </g>
    </g>
</svg>